ply
format ascii 1.0
element vertex 400
property float32 x
property float32 y
property float32 z
property float32 s
element face 722
property list uchar int vertex_indices
end_header
-1.19900000095367432 -1.19900000095367432 0 0.00126218004152178764
-1.19900000095367432 -1.07299995422363281 0 0.00138694001361727715
-1.19900000095367432 -0.947000026702880859 0 0.00150388001929968596
-1.19900000095367432 -0.820999979972839355 0 0.00161516002845019102
-1.19900000095367432 -0.694000005722045898 0 0.00171363004483282566
-1.19900000095367432 -0.56800001859664917 0 0.00182312994729727507
-1.19900000095367432 -0.442000001668930054 0 0.00190079002641141415
-1.19900000095367432 -0.316000014543533325 0 0.00198489008471369743
-1.19900000095367432 -0.188999995589256287 0 0.00204992992803454399
-1.19900000095367432 -0.0630000010132789612 0 0.00207319995388388634
-1.19900000095367432 0.0630000010132789612 0 0.00206736009567975998
-1.19900000095367432 0.188999995589256287 0 0.00204112008213996887
-1.19900000095367432 0.316000014543533325 0 0.00198614993132650852
-1.19900000095367432 0.442000001668930054 0 0.00191456999164074659
-1.19900000095367432 0.56800001859664917 0 0.00183286005631089211
-1.19900000095367432 0.694000005722045898 0 0.00172493001446127892
-1.19900000095367432 0.820999979972839355 0 0.00161606003530323505
-1.19900000095367432 0.947000026702880859 0 0.00150593998841941357
-1.19900000095367432 1.07299995422363281 0 0.00139224005397409201
-1.19900000095367432 1.19900000095367432 0 0.00126397004351019859
-1.07299995422363281 -1.19900000095367432 0 0.00138363998848944902
-1.07299995422363281 -1.07299995422363281 0 0.00153313996270298958
-1.07299995422363281 -0.947000026702880859 0 0.00167260004673153162
-1.07299995422363281 -0.820999979972839355 0 0.00180929002817720175
-1.07299995422363281 -0.694000005722045898 0 0.0019375999690964818
-1.07299995422363281 -0.56800001859664917 0 0.00207327003590762615
-1.07299995422363281 -0.442000001668930054 0 0.00218270998448133469
-1.07299995422363281 -0.316000014543533325 0 0.00227667996659874916
-1.07299995422363281 -0.188999995589256287 0 0.00236583990044891834
-1.07299995422363281 -0.0630000010132789612 0 0.00239715003408491611
-1.07299995422363281 0.0630000010132789612 0 0.00240384996868669987
-1.07299995422363281 0.188999995589256287 0 0.00235827011056244373
-1.07299995422363281 0.316000014543533325 0 0.00229221000336110592
-1.07299995422363281 0.442000001668930054 0 0.00219017011113464832
-1.07299995422363281 0.56800001859664917 0 0.00207612011581659317
-1.07299995422363281 0.694000005722045898 0 0.00194211001507937908
-1.07299995422363281 0.820999979972839355 0 0.00181229994632303715
-1.07299995422363281 0.947000026702880859 0 0.00167495000641793013
-1.07299995422363281 1.07299995422363281 0 0.00153805001173168421
-1.07299995422363281 1.19900000095367432 0 0.0013794599799439311
-0.947000026702880859 -1.19900000095367432 0 0.00149351998697966337
-0.947000026702880859 -1.07299995422363281 0 0.00167210004292428493
-0.947000026702880859 -0.947000026702880859 0 0.00183884997386485338
-0.947000026702880859 -0.820999979972839355 0 0.0020005800761282444
-0.947000026702880859 -0.694000005722045898 0 0.00217812997289001942
-0.947000026702880859 -0.56800001859664917 0 0.00233746995218098164
-0.947000026702880859 -0.442000001668930054 0 0.00249777990393340588
-0.947000026702880859 -0.316000014543533325 0 0.00262213009409606457
-0.947000026702880859 -0.188999995589256287 0 0.00273527996614575386
-0.947000026702880859 -0.0630000010132789612 0 0.00278584007173776627
-0.947000026702880859 0.0630000010132789612 0 0.00280237989500164986
-0.947000026702880859 0.188999995589256287 0 0.00273473002016544342
-0.947000026702880859 0.316000014543533325 0 0.00262155011296272278
-0.947000026702880859 0.442000001668930054 0 0.00249465997330844402
-0.947000026702880859 0.56800001859664917 0 0.0023405000101774931
-0.947000026702880859 0.694000005722045898 0 0.00217486009933054447
-0.947000026702880859 0.820999979972839355 0 0.00200354005210101604
-0.947000026702880859 0.947000026702880859 0 0.00183295004535466433
-0.947000026702880859 1.07299995422363281 0 0.00166973995510488749
-0.947000026702880859 1.19900000095367432 0 0.00150012003723531961
-0.820999979972839355 -1.19900000095367432 0 0.00161828997079282999
-0.820999979972839355 -1.07299995422363281 0 0.00181132997386157513
-0.820999979972839355 -0.947000026702880859 0 0.00200837990269064903
-0.820999979972839355 -0.820999979972839355 0 0.00220104004256427288
-0.820999979972839355 -0.694000005722045898 0 0.0024181900080293417
-0.820999979972839355 -0.56800001859664917 0 0.00265195989049971104
-0.820999979972839355 -0.442000001668930054 0 0.00285384990274906158
-0.820999979972839355 -0.316000014543533325 0 0.00304990005679428577
-0.820999979972839355 -0.188999995589256287 0 0.00319340010173618793
-0.820999979972839355 -0.0630000010132789612 0 0.0032878899946808815
-0.820999979972839355 0.0630000010132789612 0 0.00329117989167571068
-0.820999979972839355 0.188999995589256287 0 0.00320089003071188927
-0.820999979972839355 0.316000014543533325 0 0.00303962989710271358
-0.820999979972839355 0.442000001668930054 0 0.00284509011544287205
-0.820999979972839355 0.56800001859664917 0 0.00263821007683873177
-0.820999979972839355 0.694000005722045898 0 0.00241666007786989212
-0.820999979972839355 0.820999979972839355 0 0.00220409990288317204
-0.820999979972839355 0.947000026702880859 0 0.00200081011280417442
-0.820999979972839355 1.07299995422363281 0 0.00180412002373486757
-0.820999979972839355 1.19900000095367432 0 0.00161598005797713995
-0.694000005722045898 -1.19900000095367432 0 0.00173163996078073978
-0.694000005722045898 -1.07299995422363281 0 0.00195078004617244005
-0.694000005722045898 -0.947000026702880859 0 0.0021749099250882864
-0.694000005722045898 -0.820999979972839355 0 0.00242162006907165051
-0.694000005722045898 -0.694000005722045898 0 0.0026883298996835947
-0.694000005722045898 -0.56800001859664917 0 0.0029957799706608057
-0.694000005722045898 -0.442000001668930054 0 0.00329830008558928967
-0.694000005722045898 -0.316000014543533325 0 0.00358585990034043789
-0.694000005722045898 -0.188999995589256287 0 0.00380678009241819382
-0.694000005722045898 -0.0630000010132789612 0 0.00394186004996299744
-0.694000005722045898 0.0630000010132789612 0 0.00395946996286511421
-0.694000005722045898 0.188999995589256287 0 0.00380813004449009895
-0.694000005722045898 0.316000014543533325 0 0.0035714500118046999
-0.694000005722045898 0.442000001668930054 0 0.00329594989307224751
-0.694000005722045898 0.56800001859664917 0 0.00297736003994941711
-0.694000005722045898 0.694000005722045898 0 0.00267703994177281857
-0.694000005722045898 0.820999979972839355 0 0.00242383009754121304
-0.694000005722045898 0.947000026702880859 0 0.00217400002293288708
-0.694000005722045898 1.07299995422363281 0 0.0019470900297164917
-0.694000005722045898 1.19900000095367432 0 0.00171692995354533195
-0.56800001859664917 -1.19900000095367432 0 0.00183209998067468405
-0.56800001859664917 -1.07299995422363281 0 0.00208063004538416862
-0.56800001859664917 -0.947000026702880859 0 0.0023428499698638916
-0.56800001859664917 -0.820999979972839355 0 0.00263768993318080902
-0.56800001859664917 -0.694000005722045898 0 0.00298218009993433952
-0.56800001859664917 -0.56800001859664917 0 0.00338615989312529564
-0.56800001859664917 -0.442000001668930054 0 0.00382654997520148754
-0.56800001859664917 -0.316000014543533325 0 0.00428334018215537071
-0.56800001859664917 -0.188999995589256287 0 0.00469580991193652153
-0.56800001859664917 -0.0630000010132789612 0 0.0049467599019408226
-0.56800001859664917 0.0630000010132789612 0 0.00495185982435941696
-0.56800001859664917 0.188999995589256287 0 0.00469247018918395042
-0.56800001859664917 0.316000014543533325 0 0.00428663985803723335
-0.56800001859664917 0.442000001668930054 0 0.00381698994897305965
-0.56800001859664917 0.56800001859664917 0 0.00337143009528517723
-0.56800001859664917 0.694000005722045898 0 0.00298855989240109921
-0.56800001859664917 0.820999979972839355 0 0.00263724010437726974
-0.56800001859664917 0.947000026702880859 0 0.00232988991774618626
-0.56800001859664917 1.07299995422363281 0 0.0020654299296438694
-0.56800001859664917 1.19900000095367432 0 0.00181733001954853535
-0.442000001668930054 -1.19900000095367432 0 0.00192042998969554901
-0.442000001668930054 -1.07299995422363281 0 0.00219958997331559658
-0.442000001668930054 -0.947000026702880859 0 0.00251207989640533924
-0.442000001668930054 -0.820999979972839355 0 0.00286719994619488716
-0.442000001668930054 -0.694000005722045898 0 0.0032860098872333765
-0.442000001668930054 -0.56800001859664917 0 0.00381239992566406727
-0.442000001668930054 -0.442000001668930054 0 0.0044733700342476368
-0.442000001668930054 -0.316000014543533325 0 0.00527798011898994446
-0.442000001668930054 -0.188999995589256287 0 0.006105049978941679
-0.442000001668930054 -0.0630000010132789612 0 0.0067818998359143734
-0.442000001668930054 0.0630000010132789612 0 0.00678627984598278999
-0.442000001668930054 0.188999995589256287 0 0.00610814988613128662
-0.442000001668930054 0.316000014543533325 0 0.00527299987152218819
-0.442000001668930054 0.442000001668930054 0 0.00448143994435667992
-0.442000001668930054 0.56800001859664917 0 0.00382222002372145653
-0.442000001668930054 0.694000005722045898 0 0.00328918010927736759
-0.442000001668930054 0.820999979972839355 0 0.00284629990346729755
-0.442000001668930054 0.947000026702880859 0 0.00248419004492461681
-0.442000001668930054 1.07299995422363281 0 0.002188859973102808
-0.442000001668930054 1.19900000095367432 0 0.00190287001896649599
-0.316000014543533325 -1.19900000095367432 0 0.00198075990192592144
-0.316000014543533325 -1.07299995422363281 0 0.00228821998462080956
-0.316000014543533325 -0.947000026702880859 0 0.00262718996964395046
-0.316000014543533325 -0.820999979972839355 0 0.00305928010493516922
-0.316000014543533325 -0.694000005722045898 0 0.00359782995656132698
-0.316000014543533325 -0.56800001859664917 0 0.00429413001984357834
-0.316000014543533325 -0.442000001668930054 0 0.00526301003992557526
-0.316000014543533325 -0.316000014543533325 0 0.00676872022449970245
-0.316000014543533325 -0.188999995589256287 0 0.00877534970641136169
-0.316000014543533325 -0.0630000010132789612 0 0.0100028002634644508
-0.316000014543533325 0.0630000010132789612 0 0.0099864499643445015
-0.316000014543533325 0.188999995589256287 0 0.00876308977603912354
-0.316000014543533325 0.316000014543533325 0 0.00678121019154787064
-0.316000014543533325 0.442000001668930054 0 0.00526716979220509529
-0.316000014543533325 0.56800001859664917 0 0.00427928008139133453
-0.316000014543533325 0.694000005722045898 0 0.00358149991370737553
-0.316000014543533325 0.820999979972839355 0 0.0030438699759542942
-0.316000014543533325 0.947000026702880859 0 0.00262884004041552544
-0.316000014543533325 1.07299995422363281 0 0.00228742999024689198
-0.316000014543533325 1.19900000095367432 0 0.00198460998944938183
-0.188999995589256287 -1.19900000095367432 0 0.00204288004897534847
-0.188999995589256287 -1.07299995422363281 0 0.00237325998023152351
-0.188999995589256287 -0.947000026702880859 0 0.00273667997680604458
-0.188999995589256287 -0.820999979972839355 0 0.00319402990862727165
-0.188999995589256287 -0.694000005722045898 0 0.00380378006957471371
-0.188999995589256287 -0.56800001859664917 0 0.00469496985897421837
-0.188999995589256287 -0.442000001668930054 0 0.00610608980059623718
-0.188999995589256287 -0.316000014543533325 0 0.0087476903572678566
-0.188999995589256287 -0.188999995589256287 0 0.0114174000918865204
-0.188999995589256287 -0.0630000010132789612 0 0.0134856998920440674
-0.188999995589256287 0.0630000010132789612 0 0.0135273998603224754
-0.188999995589256287 0.188999995589256287 0 0.0114358002319931984
-0.188999995589256287 0.316000014543533325 0 0.00875774025917053223
-0.188999995589256287 0.442000001668930054 0 0.00610728003084659576
-0.188999995589256287 0.56800001859664917 0 0.00468302005901932716
-0.188999995589256287 0.694000005722045898 0 0.00379108008928596973
-0.188999995589256287 0.820999979972839355 0 0.00317850010469555855
-0.188999995589256287 0.947000026702880859 0 0.00272184005007147789
-0.188999995589256287 1.07299995422363281 0 0.00235611991956830025
-0.188999995589256287 1.19900000095367432 0 0.00203099008649587631
-0.0630000010132789612 -1.19900000095367432 0 0.00206993008032441139
-0.0630000010132789612 -1.07299995422363281 0 0.00240854988805949688
-0.0630000010132789612 -0.947000026702880859 0 0.00279264990240335464
-0.0630000010132789612 -0.820999979972839355 0 0.00330168008804321289
-0.0630000010132789612 -0.694000005722045898 0 0.00397437997162342072
-0.0630000010132789612 -0.56800001859664917 0 0.00495781004428863525
-0.0630000010132789612 -0.442000001668930054 0 0.0067769601009786129
-0.0630000010132789612 -0.316000014543533325 0 0.00998811982572078705
-0.0630000010132789612 -0.188999995589256287 0 0.0135209998115897179
-0.0630000010132789612 -0.0630000010132789612 0 0.0188615992665290833
-0.0630000010132789612 0.0630000010132789612 0 0.0189334992319345474
-0.0630000010132789612 0.188999995589256287 0 0.0135276997461915016
-0.0630000010132789612 0.316000014543533325 0 0.00995102990418672562
-0.0630000010132789612 0.442000001668930054 0 0.00676626991480588913
-0.0630000010132789612 0.56800001859664917 0 0.00494108023121953011
-0.0630000010132789612 0.694000005722045898 0 0.00394685985520482063
-0.0630000010132789612 0.820999979972839355 0 0.00328404991887509823
-0.0630000010132789612 0.947000026702880859 0 0.00278528989292681217
-0.0630000010132789612 1.07299995422363281 0 0.00238856999203562737
-0.0630000010132789612 1.19900000095367432 0 0.00205415999516844749
0.0630000010132789612 -1.19900000095367432 0 0.00207672989927232265
0.0630000010132789612 -1.07299995422363281 0 0.00240953988395631313
0.0630000010132789612 -0.947000026702880859 0 0.0028060500044375658
0.0630000010132789612 -0.820999979972839355 0 0.00329999998211860657
0.0630000010132789612 -0.694000005722045898 0 0.00397128984332084656
0.0630000010132789612 -0.56800001859664917 0 0.00495454017072916031
0.0630000010132789612 -0.442000001668930054 0 0.00675813993439078331
0.0630000010132789612 -0.316000014543533325 0 0.00997177045792341232
0.0630000010132789612 -0.188999995589256287 0 0.0134811000898480415
0.0630000010132789612 -0.0630000010132789612 0 0.018877299502491951
0.0630000010132789612 0.0630000010132789612 0 0.0189187005162239075
0.0630000010132789612 0.188999995589256287 0 0.0135230002924799919
0.0630000010132789612 0.316000014543533325 0 0.00994663964956998825
0.0630000010132789612 0.442000001668930054 0 0.00676226988434791565
0.0630000010132789612 0.56800001859664917 0 0.00493944017216563225
0.0630000010132789612 0.694000005722045898 0 0.0039404798299074173
0.0630000010132789612 0.820999979972839355 0 0.00327552994713187218
0.0630000010132789612 0.947000026702880859 0 0.00279117003083229065
0.0630000010132789612 1.07299995422363281 0 0.00240644998848438263
0.0630000010132789612 1.19900000095367432 0 0.00207152008078992367
0.188999995589256287 -1.19900000095367432 0 0.00204075989313423634
0.188999995589256287 -1.07299995422363281 0 0.00235783006064593792
0.188999995589256287 -0.947000026702880859 0 0.0027279900386929512
0.188999995589256287 -0.820999979972839355 0 0.00319816009141504765
0.188999995589256287 -0.694000005722045898 0 0.00381184997968375683
0.188999995589256287 -0.56800001859664917 0 0.00469132978469133377
0.188999995589256287 -0.442000001668930054 0 0.00609879009425640106
0.188999995589256287 -0.316000014543533325 0 0.00874575972557067871
0.188999995589256287 -0.188999995589256287 0 0.0114077003672719002
0.188999995589256287 -0.0630000010132789612 0 0.0135609004646539688
0.188999995589256287 0.0630000010132789612 0 0.0135064003989100456
0.188999995589256287 0.188999995589256287 0 0.0114636998623609543
0.188999995589256287 0.316000014543533325 0 0.00874678045511245728
0.188999995589256287 0.442000001668930054 0 0.00608868012204766273
0.188999995589256287 0.56800001859664917 0 0.00466659991070628166
0.188999995589256287 0.694000005722045898 0 0.00379547011107206345
0.188999995589256287 0.820999979972839355 0 0.00319738010875880718
0.188999995589256287 0.947000026702880859 0 0.00272904010489583015
0.188999995589256287 1.07299995422363281 0 0.00235197995789349079
0.188999995589256287 1.19900000095367432 0 0.00203831004910171032
0.316000014543533325 -1.19900000095367432 0 0.00196856004185974598
0.316000014543533325 -1.07299995422363281 0 0.00228502997197210789
0.316000014543533325 -0.947000026702880859 0 0.00264913006685674191
0.316000014543533325 -0.820999979972839355 0 0.00306272995658218861
0.316000014543533325 -0.694000005722045898 0 0.00357699999585747719
0.316000014543533325 -0.56800001859664917 0 0.00426925020292401314
0.316000014543533325 -0.442000001668930054 0 0.0052335299551486969
0.316000014543533325 -0.316000014543533325 0 0.00678252987563610077
0.316000014543533325 -0.188999995589256287 0 0.00875180959701538086
0.316000014543533325 -0.0630000010132789612 0 0.00997305009514093399
0.316000014543533325 0.0630000010132789612 0 0.00997543986886739731
0.316000014543533325 0.188999995589256287 0 0.00878959987312555313
0.316000014543533325 0.316000014543533325 0 0.00676856003701686859
0.316000014543533325 0.442000001668930054 0 0.0052557201124727726
0.316000014543533325 0.56800001859664917 0 0.00428023003041744232
0.316000014543533325 0.694000005722045898 0 0.00357487006112933159
0.316000014543533325 0.820999979972839355 0 0.00304620992392301559
0.316000014543533325 0.947000026702880859 0 0.002635610057041049
0.316000014543533325 1.07299995422363281 0 0.00228264997713267803
0.316000014543533325 1.19900000095367432 0 0.00198633992113173008
0.442000001668930054 -1.19900000095367432 0 0.00192549999337643385
0.442000001668930054 -1.07299995422363281 0 0.00219473009929060936
0.442000001668930054 -0.947000026702880859 0 0.00249961996451020241
0.442000001668930054 -0.820999979972839355 0 0.00284989993087947369
0.442000001668930054 -0.694000005722045898 0 0.00327747990377247334
0.442000001668930054 -0.56800001859664917 0 0.00382056995294988155
0.442000001668930054 -0.442000001668930054 0 0.00448527000844478607
0.442000001668930054 -0.316000014543533325 0 0.00527191022410988808
0.442000001668930054 -0.188999995589256287 0 0.00610601995140314102
0.442000001668930054 -0.0630000010132789612 0 0.0067675798200070858
0.442000001668930054 0.0630000010132789612 0 0.00677353003993630409
0.442000001668930054 0.188999995589256287 0 0.00612764013931155205
0.442000001668930054 0.316000014543533325 0 0.00526916002854704857
0.442000001668930054 0.442000001668930054 0 0.00448579993098974228
0.442000001668930054 0.56800001859664917 0 0.00383407995104789734
0.442000001668930054 0.694000005722045898 0 0.00328376004472374916
0.442000001668930054 0.820999979972839355 0 0.0028599700890481472
0.442000001668930054 0.947000026702880859 0 0.00249557988718152046
0.442000001668930054 1.07299995422363281 0 0.00218353001400828362
0.442000001668930054 1.19900000095367432 0 0.00190415000542998314
0.56800001859664917 -1.19900000095367432 0 0.00183128996286541224
0.56800001859664917 -1.07299995422363281 0 0.00207425002008676529
0.56800001859664917 -0.947000026702880859 0 0.00234007998369634151
0.56800001859664917 -0.820999979972839355 0 0.00264193001203238964
0.56800001859664917 -0.694000005722045898 0 0.00298437988385558128
0.56800001859664917 -0.56800001859664917 0 0.00338944001123309135
0.56800001859664917 -0.442000001668930054 0 0.00382493995130062103
0.56800001859664917 -0.316000014543533325 0 0.0042806500568985939
0.56800001859664917 -0.188999995589256287 0 0.0047015300951898098
0.56800001859664917 -0.0630000010132789612 0 0.00493986019864678383
0.56800001859664917 0.0630000010132789612 0 0.00496497005224227905
0.56800001859664917 0.188999995589256287 0 0.00471524987369775772
0.56800001859664917 0.316000014543533325 0 0.00430463999509811401
0.56800001859664917 0.442000001668930054 0 0.00381439994089305401
0.56800001859664917 0.56800001859664917 0 0.00338544999249279499
0.56800001859664917 0.694000005722045898 0 0.00300005008466541767
0.56800001859664917 0.820999979972839355 0 0.00264739990234375
0.56800001859664917 0.947000026702880859 0 0.00234550004824995995
0.56800001859664917 1.07299995422363281 0 0.0020793199073523283
0.56800001859664917 1.19900000095367432 0 0.00182400003541260958
0.694000005722045898 -1.19900000095367432 0 0.00171728001441806555
0.694000005722045898 -1.07299995422363281 0 0.00194321002345532179
0.694000005722045898 -0.947000026702880859 0 0.00216753990389406681
0.694000005722045898 -0.820999979972839355 0 0.0024069598875939846
0.694000005722045898 -0.694000005722045898 0 0.00269125006161630154
0.694000005722045898 -0.56800001859664917 0 0.00300047011114656925
0.694000005722045898 -0.442000001668930054 0 0.00330350990407168865
0.694000005722045898 -0.316000014543533325 0 0.00356868002563714981
0.694000005722045898 -0.188999995589256287 0 0.00382296997122466564
0.694000005722045898 -0.0630000010132789612 0 0.00394274992868304253
0.694000005722045898 0.0630000010132789612 0 0.00396917015314102173
0.694000005722045898 0.188999995589256287 0 0.00383115001022815704
0.694000005722045898 0.316000014543533325 0 0.00360391009598970413
0.694000005722045898 0.442000001668930054 0 0.00329911010339856148
0.694000005722045898 0.56800001859664917 0 0.00296889990568161011
0.694000005722045898 0.694000005722045898 0 0.00269734999164938927
0.694000005722045898 0.820999979972839355 0 0.00242861988954246044
0.694000005722045898 0.947000026702880859 0 0.00217494997195899487
0.694000005722045898 1.07299995422363281 0 0.00194241001736372709
0.694000005722045898 1.19900000095367432 0 0.00172727997414767742
0.820999979972839355 -1.19900000095367432 0 0.0016158700454980135
0.820999979972839355 -1.07299995422363281 0 0.00180591002572327852
0.820999979972839355 -0.947000026702880859 0 0.00199532997794449329
0.820999979972839355 -0.820999979972839355 0 0.00220334995537996292
0.820999979972839355 -0.694000005722045898 0 0.00243048998527228832
0.820999979972839355 -0.56800001859664917 0 0.0026481999084353447
0.820999979972839355 -0.442000001668930054 0 0.00285399006679654121
0.820999979972839355 -0.316000014543533325 0 0.00303866993635892868
0.820999979972839355 -0.188999995589256287 0 0.00319921993650496006
0.820999979972839355 -0.0630000010132789612 0 0.00329091004095971584
0.820999979972839355 0.0630000010132789612 0 0.00328208995051681995
0.820999979972839355 0.188999995589256287 0 0.00320894992910325527
0.820999979972839355 0.316000014543533325 0 0.00305532990023493767
0.820999979972839355 0.442000001668930054 0 0.00287236995063722134
0.820999979972839355 0.56800001859664917 0 0.00264893006533384323
0.820999979972839355 0.694000005722045898 0 0.00241259997710585594
0.820999979972839355 0.820999979972839355 0 0.00220652995631098747
0.820999979972839355 0.947000026702880859 0 0.00199745991267263889
0.820999979972839355 1.07299995422363281 0 0.00179941998794674873
0.820999979972839355 1.19900000095367432 0 0.00160825997591018677
0.947000026702880859 -1.19900000095367432 0 0.00149675994180142879
0.947000026702880859 -1.07299995422363281 0 0.00166724994778633118
0.947000026702880859 -0.947000026702880859 0 0.00183186994399875402
0.947000026702880859 -0.820999979972839355 0 0.00200174003839492798
0.947000026702880859 -0.694000005722045898 0 0.00217452994547784328
0.947000026702880859 -0.56800001859664917 0 0.00234888005070388317
0.947000026702880859 -0.442000001668930054 0 0.00249731005169451237
0.947000026702880859 -0.316000014543533325 0 0.00262791989371180534
0.947000026702880859 -0.188999995589256287 0 0.00272759003564715385
0.947000026702880859 -0.0630000010132789612 0 0.0027800300158560276
0.947000026702880859 0.0630000010132789612 0 0.00279141007922589779
0.947000026702880859 0.188999995589256287 0 0.00274133007042109966
0.947000026702880859 0.316000014543533325 0 0.00263646990060806274
0.947000026702880859 0.442000001668930054 0 0.0024927300401031971
0.947000026702880859 0.56800001859664917 0 0.00235350010916590691
0.947000026702880859 0.694000005722045898 0 0.00217706011608242989
0.947000026702880859 0.820999979972839355 0 0.0020058599766343832
0.947000026702880859 0.947000026702880859 0 0.00184381997678428888
0.947000026702880859 1.07299995422363281 0 0.00167238002177327871
0.947000026702880859 1.19900000095367432 0 0.00149952003266662359
1.07299995422363281 -1.19900000095367432 0 0.00137970002833753824
1.07299995422363281 -1.07299995422363281 0 0.0015274599427357316
1.07299995422363281 -0.947000026702880859 0 0.00167466001585125923
1.07299995422363281 -0.820999979972839355 0 0.00180855998769402504
1.07299995422363281 -0.694000005722045898 0 0.0019532300066202879
1.07299995422363281 -0.56800001859664917 0 0.00207990990020334721
1.07299995422363281 -0.442000001668930054 0 0.00217329990118741989
1.07299995422363281 -0.316000014543533325 0 0.00227299006655812263
1.07299995422363281 -0.188999995589256287 0 0.00236361008137464523
1.07299995422363281 -0.0630000010132789612 0 0.0023949500173330307
1.07299995422363281 0.0630000010132789612 0 0.00240118009969592094
1.07299995422363281 0.188999995589256287 0 0.00235832994803786278
1.07299995422363281 0.316000014543533325 0 0.00229588011279702187
1.07299995422363281 0.442000001668930054 0 0.0021902499720454216
1.07299995422363281 0.56800001859664917 0 0.00207853992469608784
1.07299995422363281 0.694000005722045898 0 0.00195664004422724247
1.07299995422363281 0.820999979972839355 0 0.0018075000261887908
1.07299995422363281 0.947000026702880859 0 0.00166960002388805151
1.07299995422363281 1.07299995422363281 0 0.00154149997979402542
1.07299995422363281 1.19900000095367432 0 0.00138458004221320152
1.19900000095367432 -1.19900000095367432 0 0.00125387997832149267
1.19900000095367432 -1.07299995422363281 0 0.00139037996996194124
1.19900000095367432 -0.947000026702880859 0 0.00149853003676980734
1.19900000095367432 -0.820999979972839355 0 0.0016123700188472867
1.19900000095367432 -0.694000005722045898 0 0.00173258001450449228
1.19900000095367432 -0.56800001859664917 0 0.00183217995800077915
1.19900000095367432 -0.442000001668930054 0 0.00190041994210332632
1.19900000095367432 -0.316000014543533325 0 0.00197600992396473885
1.19900000095367432 -0.188999995589256287 0 0.00204236991703510284
1.19900000095367432 -0.0630000010132789612 0 0.00206666998565196991
1.19900000095367432 0.0630000010132789612 0 0.00206650001928210258
1.19900000095367432 0.188999995589256287 0 0.00203987001441419125
1.19900000095367432 0.316000014543533325 0 0.00198050006292760372
1.19900000095367432 0.442000001668930054 0 0.00192003999836742878
1.19900000095367432 0.56800001859664917 0 0.00181775004602968693
1.19900000095367432 0.694000005722045898 0 0.00173400004860013723
1.19900000095367432 0.820999979972839355 0 0.00162412994541227818
1.19900000095367432 0.947000026702880859 0 0.00149388995487242937
1.19900000095367432 1.07299995422363281 0 0.00139344995841383934
1.19900000095367432 1.19900000095367432 0 0.00125939003191888332
3 63 43 42
3 62 63 42
3 20 1 0
3 1 20 21
3 20 41 21
3 41 20 40
3 60 41 40
3 41 60 61
3 41 62 42
3 41 61 62
3 22 41 42
3 41 22 21
3 22 1 21
3 1 22 2
3 22 3 2
3 3 22 23
3 43 22 42
3 23 22 43
3 390 370 389
3 389 370 369
3 260 241 240
3 241 260 261
3 94 113 114
3 113 94 93
3 94 73 93
3 73 94 74
3 32 13 12
3 13 32 33
3 50 30 29
3 50 29 49
3 48 68 49
3 68 69 49
3 144 165 145
3 165 144 164
3 83 64 63
3 64 83 84
3 104 83 103
3 83 104 84
3 230 251 231
3 251 230 250
3 252 251 271
3 272 252 271
3 227 208 207
3 208 227 228
3 248 269 249
3 269 248 268
3 227 248 228
3 248 227 247
3 248 267 268
3 267 248 247
3 204 225 205
3 225 204 224
3 206 227 207
3 227 206 226
3 206 187 186
3 187 206 207
3 225 206 205
3 206 225 226
3 284 263 283
3 263 284 264
3 204 223 224
3 223 204 203
3 227 246 247
3 246 227 226
3 225 246 226
3 246 225 245
3 246 267 247
3 267 246 266
3 223 244 224
3 244 223 243
3 244 263 264
3 263 244 243
3 225 244 245
3 244 225 224
3 244 265 245
3 265 244 264
3 284 265 264
3 265 284 285
3 265 286 266
3 286 265 285
3 246 265 266
3 265 246 245
3 218 219 199
3 218 199 198
3 219 218 239
3 218 238 239
3 127 107 106
3 126 127 106
3 50 70 51
3 70 71 51
3 70 50 49
3 69 70 49
3 367 386 387
3 386 367 366
3 371 390 391
3 371 370 390
3 371 351 350
3 370 371 350
3 340 321 320
3 321 340 341
3 281 260 280
3 260 281 261
3 223 242 243
3 242 223 222
3 242 263 243
3 263 242 262
3 242 241 261
3 242 261 262
3 221 242 222
3 242 221 241
3 221 220 240
3 241 221 240
3 200 181 180
3 200 201 181
3 221 200 220
3 200 221 201
3 223 202 222
3 202 223 203
3 201 202 181
3 181 202 182
3 221 202 201
3 202 221 222
3 386 365 385
3 365 386 366
3 365 384 385
3 365 364 384
3 183 202 203
3 202 183 182
3 183 162 182
3 183 163 162
3 144 143 164
3 143 163 164
3 140 121 120
3 121 140 141
3 161 140 160
3 140 161 141
3 161 160 180
3 181 161 180
3 161 181 182
3 162 161 182
3 197 177 176
3 196 197 176
3 139 158 159
3 158 139 138
3 374 393 394
3 393 374 373
3 395 374 394
3 374 395 375
3 319 338 339
3 338 319 318
3 338 359 339
3 359 338 358
3 36 17 16
3 17 36 37
3 13 34 14
3 34 13 33
3 50 31 30
3 31 50 51
3 11 31 12
3 31 32 12
3 30 10 29
3 29 10 9
3 31 10 30
3 10 31 11
3 52 31 51
3 31 52 32
3 71 52 51
3 72 52 71
3 32 52 33
3 33 52 53
3 52 73 53
3 52 72 73
3 118 139 119
3 139 118 138
3 99 118 119
3 98 118 99
3 47 26 46
3 26 47 27
3 7 26 27
3 26 7 6
3 7 28 8
3 28 7 27
3 47 28 27
3 28 47 48
3 8 28 9
3 28 29 9
3 29 28 49
3 28 48 49
3 185 206 186
3 206 185 205
3 166 185 186
3 185 166 165
3 104 125 105
3 125 104 124
3 125 144 145
3 144 125 124
3 125 126 106
3 105 125 106
3 64 85 65
3 85 64 84
3 66 85 86
3 85 66 65
3 104 85 84
3 85 104 105
3 85 105 106
3 86 85 106
3 229 248 249
3 248 229 228
3 230 229 250
3 229 249 250
3 188 169 168
3 169 188 189
3 208 188 207
3 188 187 207
3 287 267 266
3 286 287 266
3 298 319 299
3 319 298 318
3 279 298 299
3 298 279 278
3 239 258 259
3 238 258 239
3 258 279 259
3 279 258 278
3 68 89 69
3 89 68 88
3 370 349 369
3 349 370 350
3 349 329 328
3 348 349 328
3 330 349 350
3 349 330 329
3 388 368 387
3 368 367 387
3 368 388 389
3 368 389 369
3 349 368 369
3 368 349 348
3 347 326 346
3 326 347 327
3 367 347 366
3 366 347 346
3 347 348 328
3 347 328 327
3 368 347 367
3 347 368 348
3 284 304 285
3 304 305 285
3 304 284 283
3 303 304 283
3 313 334 314
3 334 313 333
3 313 332 333
3 332 313 312
3 393 372 392
3 372 393 373
3 372 391 392
3 372 371 391
3 301 300 320
3 321 301 320
3 300 301 280
3 301 281 280
3 303 322 323
3 322 303 302
3 322 301 321
3 301 322 302
3 303 282 302
3 282 303 283
3 263 282 283
3 282 263 262
3 282 301 302
3 301 282 281
3 281 282 261
3 261 282 262
3 381 360 380
3 360 381 361
3 340 360 341
3 360 361 341
3 82 63 62
3 82 83 63
3 183 184 163
3 163 184 164
3 204 184 203
3 184 183 203
3 184 165 164
3 184 185 165
3 184 204 205
3 185 184 205
3 142 121 141
3 121 142 122
3 161 142 141
3 142 161 162
3 163 142 162
3 143 142 163
3 142 123 122
3 123 142 143
3 123 104 103
3 104 123 124
3 123 143 144
3 123 144 124
3 155 175 156
3 175 176 156
3 212 193 192
3 193 212 213
3 172 193 173
3 193 172 192
3 133 112 132
3 112 133 113
3 131 151 152
3 131 152 132
3 73 92 93
3 72 92 73
3 92 72 71
3 91 92 71
3 92 113 93
3 92 112 113
3 178 179 159
3 158 178 159
3 179 178 199
3 199 178 198
3 197 178 177
3 178 197 198
3 157 158 138
3 157 138 137
3 177 157 176
3 176 157 156
3 157 178 158
3 178 157 177
3 354 334 333
3 353 354 333
3 335 354 355
3 354 335 334
3 374 354 373
3 354 353 373
3 354 375 355
3 354 374 375
3 379 398 399
3 398 379 378
3 378 379 358
3 379 359 358
3 377 398 378
3 398 377 397
3 351 331 350
3 331 330 350
3 331 311 310
3 330 331 310
3 331 332 312
3 331 312 311
3 15 35 16
3 35 36 16
3 35 15 14
3 34 35 14
3 56 75 76
3 75 56 55
3 35 56 36
3 56 35 55
3 54 75 55
3 75 54 74
3 54 73 74
3 73 54 53
3 35 54 55
3 54 35 34
3 54 34 33
3 54 33 53
3 94 95 74
3 95 75 74
3 95 94 114
3 115 95 114
3 75 95 76
3 95 96 76
3 116 95 115
3 95 116 96
3 18 39 19
3 39 18 38
3 18 17 37
3 38 18 37
3 63 44 43
3 64 44 63
3 165 146 145
3 166 146 165
3 146 127 126
3 127 146 147
3 146 125 145
3 125 146 126
3 188 167 187
3 167 188 168
3 167 148 147
3 148 167 168
3 187 167 186
3 167 166 186
3 146 167 147
3 167 146 166
3 67 68 48
3 47 67 48
3 67 47 46
3 66 67 46
3 288 269 268
3 288 289 269
3 267 288 268
3 287 288 267
3 288 309 289
3 309 288 308
3 330 309 329
3 309 330 310
3 329 309 328
3 309 308 328
3 311 290 310
3 291 290 311
3 309 290 289
3 290 309 310
3 188 209 189
3 209 188 208
3 209 208 228
3 229 209 228
3 210 229 230
3 210 209 229
3 150 171 151
3 171 150 170
3 151 171 152
3 171 172 152
3 172 171 192
3 171 191 192
3 251 232 231
3 252 232 251
3 232 211 231
3 211 232 212
3 211 212 192
3 191 211 192
3 211 230 231
3 211 210 230
3 253 252 272
3 253 272 273
3 234 254 255
3 234 255 235
3 306 286 285
3 305 306 285
3 297 298 278
3 297 278 277
3 258 257 278
3 278 257 277
3 257 258 238
3 237 257 238
3 257 276 277
3 276 257 256
3 315 335 336
3 316 315 336
3 335 315 334
3 334 315 314
3 294 315 295
3 315 294 314
3 214 193 213
3 193 214 194
3 257 236 256
3 236 257 237
3 255 236 235
3 236 255 256
3 217 236 237
3 236 217 216
3 218 217 238
3 217 237 238
3 217 218 198
3 197 217 198
3 217 197 196
3 216 217 196
3 324 303 323
3 324 304 303
3 292 272 271
3 291 292 271
3 312 292 311
3 292 291 311
3 352 331 351
3 331 352 332
3 371 352 351
3 372 352 371
3 332 352 333
3 352 353 333
3 352 372 373
3 353 352 373
3 381 362 361
3 362 381 382
3 123 102 122
3 102 123 103
3 83 102 103
3 82 102 83
3 81 60 80
3 60 81 61
3 61 81 62
3 81 82 62
3 195 196 176
3 175 195 176
3 193 174 173
3 174 193 194
3 174 195 175
3 195 174 194
3 174 175 155
3 154 174 155
3 153 133 132
3 152 153 132
3 153 172 173
3 172 153 152
3 174 153 173
3 153 174 154
3 134 154 155
3 135 134 155
3 134 115 114
3 134 135 115
3 134 153 154
3 153 134 133
3 113 134 114
3 133 134 113
3 356 335 355
3 335 356 336
3 58 39 38
3 39 58 59
3 136 157 137
3 157 136 156
3 136 155 156
3 136 135 155
3 136 116 115
3 135 136 115
3 117 118 98
3 97 117 98
3 118 117 138
3 138 117 137
3 116 117 96
3 117 97 96
3 136 117 116
3 117 136 137
3 66 45 65
3 45 66 46
3 45 64 65
3 45 44 64
3 3 24 4
3 24 3 23
3 24 23 43
3 44 24 43
3 107 87 106
3 87 86 106
3 87 66 86
3 87 67 66
3 68 87 88
3 67 87 68
3 269 270 249
3 249 270 250
3 270 251 250
3 251 270 271
3 289 270 269
3 290 270 289
3 270 290 291
3 270 291 271
3 171 190 191
3 190 171 170
3 190 169 189
3 169 190 170
3 211 190 210
3 190 211 191
3 209 190 189
3 210 190 209
3 212 233 213
3 232 233 212
3 233 214 213
3 214 233 234
3 233 232 252
3 253 233 252
3 234 233 254
3 233 253 254
3 307 288 287
3 288 307 308
3 328 307 327
3 308 307 328
3 307 287 286
3 306 307 286
3 307 326 327
3 307 306 326
3 298 317 318
3 297 317 298
3 317 338 318
3 338 317 337
3 317 316 336
3 337 317 336
3 274 253 273
3 253 274 254
3 296 315 316
3 315 296 295
3 296 317 297
3 317 296 316
3 296 297 277
3 276 296 277
3 108 87 107
3 87 108 88
3 169 149 168
3 149 148 168
3 150 149 170
3 149 169 170
3 293 313 314
3 294 293 314
3 293 274 273
3 274 293 294
3 313 293 312
3 293 292 312
3 272 293 273
3 292 293 272
3 343 324 323
3 343 344 324
3 101 121 122
3 102 101 122
3 101 100 120
3 121 101 120
3 101 102 82
3 81 101 82
3 100 101 80
3 101 81 80
3 236 215 235
3 215 236 216
3 215 216 196
3 195 215 196
3 215 234 235
3 215 214 234
3 214 215 194
3 215 195 194
3 395 376 375
3 376 395 396
3 375 376 355
3 376 356 355
3 397 376 396
3 377 376 397
3 357 378 358
3 357 377 378
3 338 357 358
3 357 338 337
3 357 376 377
3 376 357 356
3 356 357 336
3 357 337 336
3 96 77 76
3 97 77 96
3 26 25 46
3 25 45 46
3 5 25 6
3 25 26 6
3 45 25 44
3 25 24 44
3 25 5 4
3 24 25 4
3 254 275 255
3 274 275 254
3 275 294 295
3 275 274 294
3 275 276 256
3 255 275 256
3 296 275 295
3 275 296 276
3 148 128 147
3 128 127 147
3 127 128 107
3 128 108 107
3 149 128 148
3 128 149 129
3 111 92 91
3 92 111 112
3 112 111 132
3 111 131 132
3 90 111 91
3 111 90 110
3 70 90 71
3 90 91 71
3 90 70 69
3 89 90 69
3 130 149 150
3 149 130 129
3 131 130 151
3 130 150 151
3 130 111 110
3 111 130 131
3 109 130 110
3 130 109 129
3 109 89 88
3 108 109 88
3 109 128 129
3 128 109 108
3 109 90 89
3 90 109 110
3 345 365 366
3 345 366 346
3 365 345 364
3 345 344 364
3 384 363 383
3 364 363 384
3 343 363 344
3 344 363 364
3 363 382 383
3 363 362 382
3 361 342 341
3 362 342 361
3 342 321 341
3 342 322 321
3 363 342 362
3 342 363 343
3 322 342 323
3 342 343 323
3 78 99 79
3 78 98 99
3 78 97 98
3 78 77 97
3 59 78 79
3 58 78 59
3 57 38 37
3 57 58 38
3 36 57 37
3 56 57 36
3 57 78 58
3 78 57 77
3 57 56 76
3 77 57 76
3 326 325 346
3 325 345 346
3 344 325 324
3 345 325 344
3 325 306 305
3 306 325 326
3 304 325 305
3 324 325 304
