ply
format ascii 1.0
element vertex 400
property float32 x
property float32 y
property float32 z
property float32 s
element face 722
property list uchar int vertex_indices
end_header
-1.19900000095367432 -1.19900000095367432 0 0.00126114999875426292
-1.19900000095367432 -1.07299995422363281 0 0.00137801002711057663
-1.19900000095367432 -0.947000026702880859 0 0.00148563005495816469
-1.19900000095367432 -0.820999979972839355 0 0.00159976002760231495
-1.19900000095367432 -0.694000005722045898 0 0.0017138100229203701
-1.19900000095367432 -0.56800001859664917 0 0.00181027001235634089
-1.19900000095367432 -0.442000001668930054 0 0.00189592002425342798
-1.19900000095367432 -0.316000014543533325 0 0.00198417995125055313
-1.19900000095367432 -0.188999995589256287 0 0.00202507991343736649
-1.19900000095367432 -0.0630000010132789612 0 0.00205830996856093407
-1.19900000095367432 0.0630000010132789612 0 0.00206201011314988136
-1.19900000095367432 0.188999995589256287 0 0.0020262300968170166
-1.19900000095367432 0.316000014543533325 0 0.00197586999274790287
-1.19900000095367432 0.442000001668930054 0 0.00191351003013551235
-1.19900000095367432 0.56800001859664917 0 0.0018089700024574995
-1.19900000095367432 0.694000005722045898 0 0.00171867001336067915
-1.19900000095367432 0.820999979972839355 0 0.00160328997299075127
-1.19900000095367432 0.947000026702880859 0 0.00148691004142165184
-1.19900000095367432 1.07299995422363281 0 0.0013783599715679884
-1.19900000095367432 1.19900000095367432 0 0.00125083001330494881
-1.07299995422363281 -1.19900000095367432 0 0.00137144001200795174
-1.07299995422363281 -1.07299995422363281 0 0.00152487005107104778
-1.07299995422363281 -0.947000026702880859 0 0.0016719399718567729
-1.07299995422363281 -0.820999979972839355 0 0.00178944005165249109
-1.07299995422363281 -0.694000005722045898 0 0.00193840998690575361
-1.07299995422363281 -0.56800001859664917 0 0.00205707992427051067
-1.07299995422363281 -0.442000001668930054 0 0.00218370999209582806
-1.07299995422363281 -0.316000014543533325 0 0.00228201993741095066
-1.07299995422363281 -0.188999995589256287 0 0.00235476996749639511
-1.07299995422363281 -0.0630000010132789612 0 0.00239701010286808014
-1.07299995422363281 0.0630000010132789612 0 0.00239313999190926552
-1.07299995422363281 0.188999995589256287 0 0.00235502002760767937
-1.07299995422363281 0.316000014543533325 0 0.00228237011469900608
-1.07299995422363281 0.442000001668930054 0 0.00218625995330512524
-1.07299995422363281 0.56800001859664917 0 0.00206339010037481785
-1.07299995422363281 0.694000005722045898 0 0.00194094004109501839
-1.07299995422363281 0.820999979972839355 0 0.00178839999716728926
-1.07299995422363281 0.947000026702880859 0 0.00166456995066255331
-1.07299995422363281 1.07299995422363281 0 0.00152233999688178301
-1.07299995422363281 1.19900000095367432 0 0.00136918004136532545
-0.947000026702880859 -1.19900000095367432 0 0.00148415996227413416
-0.947000026702880859 -1.07299995422363281 0 0.00166268995963037014
-0.947000026702880859 -0.947000026702880859 0 0.0018259900389239192
-0.947000026702880859 -0.820999979972839355 0 0.00199945992790162563
-0.947000026702880859 -0.694000005722045898 0 0.00216553988866508007
-0.947000026702880859 -0.56800001859664917 0 0.00234488002024590969
-0.947000026702880859 -0.442000001668930054 0 0.00248934002593159676
-0.947000026702880859 -0.316000014543533325 0 0.00263486010953783989
-0.947000026702880859 -0.188999995589256287 0 0.00273271999321877956
-0.947000026702880859 -0.0630000010132789612 0 0.00278905988670885563
-0.947000026702880859 0.0630000010132789612 0 0.00277913990430533886
-0.947000026702880859 0.188999995589256287 0 0.00273898988962173462
-0.947000026702880859 0.316000014543533325 0 0.00262652011588215828
-0.947000026702880859 0.442000001668930054 0 0.00248224008828401566
-0.947000026702880859 0.56800001859664917 0 0.00234975991770625114
-0.947000026702880859 0.694000005722045898 0 0.00215294002555310726
-0.947000026702880859 0.820999979972839355 0 0.00199061003513634205
-0.947000026702880859 0.947000026702880859 0 0.00181658996734768152
-0.947000026702880859 1.07299995422363281 0 0.00165730004664510489
-0.947000026702880859 1.19900000095367432 0 0.00147970998659729958
-0.820999979972839355 -1.19900000095367432 0 0.00160356005653738976
-0.820999979972839355 -1.07299995422363281 0 0.00179104995913803577
-0.820999979972839355 -0.947000026702880859 0 0.00200269999913871288
-0.820999979972839355 -0.820999979972839355 0 0.00219905003905296326
-0.820999979972839355 -0.694000005722045898 0 0.00241809990257024765
-0.820999979972839355 -0.56800001859664917 0 0.00264723994769155979
-0.820999979972839355 -0.442000001668930054 0 0.00287342001684010029
-0.820999979972839355 -0.316000014543533325 0 0.00304277008399367332
-0.820999979972839355 -0.188999995589256287 0 0.00321212993003427982
-0.820999979972839355 -0.0630000010132789612 0 0.00329895992763340473
-0.820999979972839355 0.0630000010132789612 0 0.00329214008525013924
-0.820999979972839355 0.188999995589256287 0 0.00321680004708468914
-0.820999979972839355 0.316000014543533325 0 0.00304122990928590298
-0.820999979972839355 0.442000001668930054 0 0.0028596299234777689
-0.820999979972839355 0.56800001859664917 0 0.00263154995627701283
-0.820999979972839355 0.694000005722045898 0 0.00240561994723975658
-0.820999979972839355 0.820999979972839355 0 0.0021933999378234148
-0.820999979972839355 0.947000026702880859 0 0.00198834994807839394
-0.820999979972839355 1.07299995422363281 0 0.00179061002563685179
-0.820999979972839355 1.19900000095367432 0 0.00160085002426058054
-0.694000005722045898 -1.19900000095367432 0 0.00171413004864007235
-0.694000005722045898 -1.07299995422363281 0 0.00192694005090743303
-0.694000005722045898 -0.947000026702880859 0 0.00215083989314734936
-0.694000005722045898 -0.820999979972839355 0 0.002417390001937747
-0.694000005722045898 -0.694000005722045898 0 0.00268188002519309521
-0.694000005722045898 -0.56800001859664917 0 0.00300535000860691071
-0.694000005722045898 -0.442000001668930054 0 0.00333106005564332008
-0.694000005722045898 -0.316000014543533325 0 0.00361041002906858921
-0.694000005722045898 -0.188999995589256287 0 0.0038471100851893425
-0.694000005722045898 -0.0630000010132789612 0 0.00400481000542640686
-0.694000005722045898 0.0630000010132789612 0 0.00400512991473078728
-0.694000005722045898 0.188999995589256287 0 0.00384900998324155807
-0.694000005722045898 0.316000014543533325 0 0.0036066700704395771
-0.694000005722045898 0.442000001668930054 0 0.00330491992644965649
-0.694000005722045898 0.56800001859664917 0 0.0029720100574195385
-0.694000005722045898 0.694000005722045898 0 0.00269461004063487053
-0.694000005722045898 0.820999979972839355 0 0.00242438004352152348
-0.694000005722045898 0.947000026702880859 0 0.00216915993951261044
-0.694000005722045898 1.07299995422363281 0 0.00193929998204112053
-0.694000005722045898 1.19900000095367432 0 0.00170557003002613783
-0.56800001859664917 -1.19900000095367432 0 0.00182041001971811056
-0.56800001859664917 -1.07299995422363281 0 0.00206876988522708416
-0.56800001859664917 -0.947000026702880859 0 0.00232978002168238163
-0.56800001859664917 -0.820999979972839355 0 0.00262843002565205097
-0.56800001859664917 -0.694000005722045898 0 0.00298503995873034
-0.56800001859664917 -0.56800001859664917 0 0.00339118996635079384
-0.56800001859664917 -0.442000001668930054 0 0.00388158997520804405
-0.56800001859664917 -0.316000014543533325 0 0.00435518985614180565
-0.56800001859664917 -0.188999995589256287 0 0.00479059014469385147
-0.56800001859664917 -0.0630000010132789612 0 0.00508316000923514366
-0.56800001859664917 0.0630000010132789612 0 0.00507161999121308327
-0.56800001859664917 0.188999995589256287 0 0.00481612002477049828
-0.56800001859664917 0.316000014543533325 0 0.0043483697809278965
-0.56800001859664917 0.442000001668930054 0 0.00385004002600908279
-0.56800001859664917 0.56800001859664917 0 0.00340295000933110714
-0.56800001859664917 0.694000005722045898 0 0.00299288006499409676
-0.56800001859664917 0.820999979972839355 0 0.00263399002142250538
-0.56800001859664917 0.947000026702880859 0 0.00232857000082731247
-0.56800001859664917 1.07299995422363281 0 0.00205366010777652264
-0.56800001859664917 1.19900000095367432 0 0.00180544005706906319
-0.442000001668930054 -1.19900000095367432 0 0.00190578005276620388
-0.442000001668930054 -1.07299995422363281 0 0.00218691001646220684
-0.442000001668930054 -0.947000026702880859 0 0.00249330000951886177
-0.442000001668930054 -0.820999979972839355 0 0.00285280006937682629
-0.442000001668930054 -0.694000005722045898 0 0.00329696992412209511
-0.442000001668930054 -0.56800001859664917 0 0.0038570500910282135
-0.442000001668930054 -0.442000001668930054 0 0.00455942004919052124
-0.442000001668930054 -0.316000014543533325 0 0.00545341987162828445
-0.442000001668930054 -0.188999995589256287 0 0.00642686989158391953
-0.442000001668930054 -0.0630000010132789612 0 0.00727547984570264816
-0.442000001668930054 0.0630000010132789612 0 0.00727936998009681702
-0.442000001668930054 0.188999995589256287 0 0.00642960984259843826
-0.442000001668930054 0.316000014543533325 0 0.00542470021173357964
-0.442000001668930054 0.442000001668930054 0 0.0045494898222386837
-0.442000001668930054 0.56800001859664917 0 0.00386076001450419426
-0.442000001668930054 0.694000005722045898 0 0.00330217997543513775
-0.442000001668930054 0.820999979972839355 0 0.00284678000025451183
-0.442000001668930054 0.947000026702880859 0 0.00248503009788691998
-0.442000001668930054 1.07299995422363281 0 0.00217651994898915291
-0.442000001668930054 1.19900000095367432 0 0.00189736997708678246
-0.316000014543533325 -1.19900000095367432 0 0.0019704899750649929
-0.316000014543533325 -1.07299995422363281 0 0.00228164996951818466
-0.316000014543533325 -0.947000026702880859 0 0.0026296200230717659
-0.316000014543533325 -0.820999979972839355 0 0.00305114989168941975
-0.316000014543533325 -0.694000005722045898 0 0.00359451002441346645
-0.316000014543533325 -0.56800001859664917 0 0.0043334299698472023
-0.316000014543533325 -0.442000001668930054 0 0.00542473001405596733
-0.316000014543533325 -0.316000014543533325 0 0.007267720066010952
-0.316000014543533325 -0.188999995589256287 0 0.0097281700000166893
-0.316000014543533325 -0.0630000010132789612 0 0.0109179997816681862
-0.316000014543533325 0.0630000010132789612 0 0.0109211001545190811
-0.316000014543533325 0.188999995589256287 0 0.00971634965389966965
-0.316000014543533325 0.316000014543533325 0 0.00726637011393904686
-0.316000014543533325 0.442000001668930054 0 0.00543620018288493156
-0.316000014543533325 0.56800001859664917 0 0.00435686018317937851
-0.316000014543533325 0.694000005722045898 0 0.00359743996523320675
-0.316000014543533325 0.820999979972839355 0 0.00304560991935431957
-0.316000014543533325 0.947000026702880859 0 0.00261773006059229374
-0.316000014543533325 1.07299995422363281 0 0.00226905010640621185
-0.316000014543533325 1.19900000095367432 0 0.00196745991706848145
-0.188999995589256287 -1.19900000095367432 0 0.00203242991119623184
-0.188999995589256287 -1.07299995422363281 0 0.00236801011487841606
-0.188999995589256287 -0.947000026702880859 0 0.00273621990345418453
-0.188999995589256287 -0.820999979972839355 0 0.00321279000490903854
-0.188999995589256287 -0.694000005722045898 0 0.00385642005130648613
-0.188999995589256287 -0.56800001859664917 0 0.00478998012840747833
-0.188999995589256287 -0.442000001668930054 0 0.00641281018033623695
-0.188999995589256287 -0.316000014543533325 0 0.00972545985132455826
-0.188999995589256287 -0.188999995589256287 0 0.0117295002564787865
-0.188999995589256287 -0.0630000010132789612 0 0.0112552996724843979
-0.188999995589256287 0.0630000010132789612 0 0.0112800998613238335
-0.188999995589256287 0.188999995589256287 0 0.0117536997422575951
-0.188999995589256287 0.316000014543533325 0 0.00972484983503818512
-0.188999995589256287 0.442000001668930054 0 0.00642122980207204819
-0.188999995589256287 0.56800001859664917 0 0.0047912299633026123
-0.188999995589256287 0.694000005722045898 0 0.00384442997165024281
-0.188999995589256287 0.820999979972839355 0 0.00317969010211527348
-0.188999995589256287 0.947000026702880859 0 0.00271752988919615746
-0.188999995589256287 1.07299995422363281 0 0.00234676990658044815
-0.188999995589256287 1.19900000095367432 0 0.00201833993196487427
-0.0630000010132789612 -1.19900000095367432 0 0.00207380997017025948
-0.0630000010132789612 -1.07299995422363281 0 0.00240388000383973122
-0.0630000010132789612 -0.947000026702880859 0 0.00279518007300794125
-0.0630000010132789612 -0.820999979972839355 0 0.00330483005382120609
-0.0630000010132789612 -0.694000005722045898 0 0.00401866016909480095
-0.0630000010132789612 -0.56800001859664917 0 0.00508638005703687668
-0.0630000010132789612 -0.442000001668930054 0 0.00726776011288166046
-0.0630000010132789612 -0.316000014543533325 0 0.0109227998182177544
-0.0630000010132789612 -0.188999995589256287 0 0.0112322000786662102
-0.0630000010132789612 -0.0630000010132789612 0 0.00951860006898641586
-0.0630000010132789612 0.0630000010132789612 0 0.00954446010291576385
-0.0630000010132789612 0.188999995589256287 0 0.0112865995615720749
-0.0630000010132789612 0.316000014543533325 0 0.0109412996098399162
-0.0630000010132789612 0.442000001668930054 0 0.00726650003343820572
-0.0630000010132789612 0.56800001859664917 0 0.00506157008931040764
-0.0630000010132789612 0.694000005722045898 0 0.0039791502058506012
-0.0630000010132789612 0.820999979972839355 0 0.00328811001963913441
-0.0630000010132789612 0.947000026702880859 0 0.00279323011636734009
-0.0630000010132789612 1.07299995422363281 0 0.00239456002600491047
-0.0630000010132789612 1.19900000095367432 0 0.00205669994466006756
0.0630000010132789612 -1.19900000095367432 0 0.00206049997359514236
0.0630000010132789612 -1.07299995422363281 0 0.00240088999271392822
0.0630000010132789612 -0.947000026702880859 0 0.00279316003434360027
0.0630000010132789612 -0.820999979972839355 0 0.00331468996591866016
0.0630000010132789612 -0.694000005722045898 0 0.00401704991236329079
0.0630000010132789612 -0.56800001859664917 0 0.00509282993152737617
0.0630000010132789612 -0.442000001668930054 0 0.00727229984477162361
0.0630000010132789612 -0.316000014543533325 0 0.0109182000160217285
0.0630000010132789612 -0.188999995589256287 0 0.0112388003617525101
0.0630000010132789612 -0.0630000010132789612 0 0.00949684996157884598
0.0630000010132789612 0.0630000010132789612 0 0.0095207802951335907
0.0630000010132789612 0.188999995589256287 0 0.0112685998901724815
0.0630000010132789612 0.316000014543533325 0 0.0109201995655894279
0.0630000010132789612 0.442000001668930054 0 0.00726172002032399178
0.0630000010132789612 0.56800001859664917 0 0.00505942991003394127
0.0630000010132789612 0.694000005722045898 0 0.00398756982758641243
0.0630000010132789612 0.820999979972839355 0 0.00328439008444547653
0.0630000010132789612 0.947000026702880859 0 0.00277932011522352695
0.0630000010132789612 1.07299995422363281 0 0.00239046989008784294
0.0630000010132789612 1.19900000095367432 0 0.0020547499880194664
0.188999995589256287 -1.19900000095367432 0 0.0020275600254535675
0.188999995589256287 -1.07299995422363281 0 0.00235744006931781769
0.188999995589256287 -0.947000026702880859 0 0.00274117989465594292
0.188999995589256287 -0.820999979972839355 0 0.00321924011223018169
0.188999995589256287 -0.694000005722045898 0 0.00386427994817495346
0.188999995589256287 -0.56800001859664917 0 0.00481426017358899117
0.188999995589256287 -0.442000001668930054 0 0.0064310501329600811
0.188999995589256287 -0.316000014543533325 0 0.00971181970089673996
0.188999995589256287 -0.188999995589256287 0 0.0117448996752500534
0.188999995589256287 -0.0630000010132789612 0 0.0112949004396796227
0.188999995589256287 0.0630000010132789612 0 0.0112878000363707542
0.188999995589256287 0.188999995589256287 0 0.0117581998929381371
0.188999995589256287 0.316000014543533325 0 0.00971874967217445374
0.188999995589256287 0.442000001668930054 0 0.00639266008511185646
0.188999995589256287 0.56800001859664917 0 0.00478116003796458244
0.188999995589256287 0.694000005722045898 0 0.00384265999309718609
0.188999995589256287 0.820999979972839355 0 0.00321252993308007717
0.188999995589256287 0.947000026702880859 0 0.00273185991682112217
0.188999995589256287 1.07299995422363281 0 0.00235406006686389446
0.188999995589256287 1.19900000095367432 0 0.00203025992959737778
0.316000014543533325 -1.19900000095367432 0 0.00197453005239367485
0.316000014543533325 -1.07299995422363281 0 0.00228844000957906246
0.316000014543533325 -0.947000026702880859 0 0.00264389999210834503
0.316000014543533325 -0.820999979972839355 0 0.00307208998128771782
0.316000014543533325 -0.694000005722045898 0 0.00361855002120137215
0.316000014543533325 -0.56800001859664917 0 0.00434448011219501495
0.316000014543533325 -0.442000001668930054 0 0.00541870016604661942
0.316000014543533325 -0.316000014543533325 0 0.00723941018804907799
0.316000014543533325 -0.188999995589256287 0 0.00971488002687692642
0.316000014543533325 -0.0630000010132789612 0 0.0109368003904819489
0.316000014543533325 0.0630000010132789612 0 0.0109219998121261597
0.316000014543533325 0.188999995589256287 0 0.00972118973731994629
0.316000014543533325 0.316000014543533325 0 0.00726273003965616226
0.316000014543533325 0.442000001668930054 0 0.00541994022205471992
0.316000014543533325 0.56800001859664917 0 0.00434054015204310417
0.316000014543533325 0.694000005722045898 0 0.00361009989865124226
0.316000014543533325 0.820999979972839355 0 0.00305103999562561512
0.316000014543533325 0.947000026702880859 0 0.00261663994751870632
0.316000014543533325 1.07299995422363281 0 0.00226744008250534534
0.316000014543533325 1.19900000095367432 0 0.00196986994706094265
0.442000001668930054 -1.19900000095367432 0 0.00191092002205550671
0.442000001668930054 -1.07299995422363281 0 0.00218859990127384663
0.442000001668930054 -0.947000026702880859 0 0.00248947995714843273
0.442000001668930054 -0.820999979972839355 0 0.00285441009327769279
0.442000001668930054 -0.694000005722045898 0 0.003292490029707551
0.442000001668930054 -0.56800001859664917 0 0.00384820997714996338
0.442000001668930054 -0.442000001668930054 0 0.00455575017258524895
0.442000001668930054 -0.316000014543533325 0 0.00542024988681077957
0.442000001668930054 -0.188999995589256287 0 0.00642006983980536461
0.442000001668930054 -0.0630000010132789612 0 0.00728065986186265945
0.442000001668930054 0.0630000010132789612 0 0.00727425981312990189
0.442000001668930054 0.188999995589256287 0 0.00641212984919548035
0.442000001668930054 0.316000014543533325 0 0.00542989000678062439
0.442000001668930054 0.442000001668930054 0 0.00457355007529258728
0.442000001668930054 0.56800001859664917 0 0.00385926989838480949
0.442000001668930054 0.694000005722045898 0 0.00330719002522528172
0.442000001668930054 0.820999979972839355 0 0.00286814011633396149
0.442000001668930054 0.947000026702880859 0 0.0024969601072371006
0.442000001668930054 1.07299995422363281 0 0.00218767998740077019
0.442000001668930054 1.19900000095367432 0 0.0019030299736186862
0.56800001859664917 -1.19900000095367432 0 0.00181596004404127598
0.56800001859664917 -1.07299995422363281 0 0.00206545996479690075
0.56800001859664917 -0.947000026702880859 0 0.00232334993779659271
0.56800001859664917 -0.820999979972839355 0 0.00263390992768108845
0.56800001859664917 -0.694000005722045898 0 0.00297666992992162704
0.56800001859664917 -0.56800001859664917 0 0.00339843006804585457
0.56800001859664917 -0.442000001668930054 0 0.00385688990354537964
0.56800001859664917 -0.316000014543533325 0 0.00435651978477835655
0.56800001859664917 -0.188999995589256287 0 0.00480281980708241463
0.56800001859664917 -0.0630000010132789612 0 0.00507646007463335991
0.56800001859664917 0.0630000010132789612 0 0.00508562987670302391
0.56800001859664917 0.188999995589256287 0 0.00480742985382676125
0.56800001859664917 0.316000014543533325 0 0.00435158982872962952
0.56800001859664917 0.442000001668930054 0 0.00386621011421084404
0.56800001859664917 0.56800001859664917 0 0.00340375001542270184
0.56800001859664917 0.694000005722045898 0 0.00299072009511291981
0.56800001859664917 0.820999979972839355 0 0.0026328300591558218
0.56800001859664917 0.947000026702880859 0 0.00233496003784239292
0.56800001859664917 1.07299995422363281 0 0.00206813006661832333
0.56800001859664917 1.19900000095367432 0 0.0018159899627789855
0.694000005722045898 -1.19900000095367432 0 0.0017032199539244175
0.694000005722045898 -1.07299995422363281 0 0.00192287005484104156
0.694000005722045898 -0.947000026702880859 0 0.0021582399494946003
0.694000005722045898 -0.820999979972839355 0 0.00240280991420149803
0.694000005722045898 -0.694000005722045898 0 0.00268708006478846073
0.694000005722045898 -0.56800001859664917 0 0.0029932800680398941
0.694000005722045898 -0.442000001668930054 0 0.00331806996837258339
0.694000005722045898 -0.316000014543533325 0 0.00360934995114803314
0.694000005722045898 -0.188999995589256287 0 0.00385771994479000568
0.694000005722045898 -0.0630000010132789612 0 0.00399221992120146751
0.694000005722045898 0.0630000010132789612 0 0.00400912016630172729
0.694000005722045898 0.188999995589256287 0 0.00386588997207581997
0.694000005722045898 0.316000014543533325 0 0.00361091992817819118
0.694000005722045898 0.442000001668930054 0 0.00329984002746641636
0.694000005722045898 0.56800001859664917 0 0.00298760994337499142
0.694000005722045898 0.694000005722045898 0 0.00269976002164185047
0.694000005722045898 0.820999979972839355 0 0.00242258002981543541
0.694000005722045898 0.947000026702880859 0 0.00215608999133110046
0.694000005722045898 1.07299995422363281 0 0.00192156003322452307
0.694000005722045898 1.19900000095367432 0 0.00171283003874123096
0.820999979972839355 -1.19900000095367432 0 0.00159680994693189859
0.820999979972839355 -1.07299995422363281 0 0.00179828004911541939
0.820999979972839355 -0.947000026702880859 0 0.00198876997455954552
0.820999979972839355 -0.820999979972839355 0 0.00218656007200479507
0.820999979972839355 -0.694000005722045898 0 0.00241905008442699909
0.820999979972839355 -0.56800001859664917 0 0.00265971990302205086
0.820999979972839355 -0.442000001668930054 0 0.00284680002368986607
0.820999979972839355 -0.316000014543533325 0 0.0030599499586969614
0.820999979972839355 -0.188999995589256287 0 0.00319590000435709953
0.820999979972839355 -0.0630000010132789612 0 0.00330237997695803642
0.820999979972839355 0.0630000010132789612 0 0.00329316011629998684
0.820999979972839355 0.188999995589256287 0 0.00322737009264528751
0.820999979972839355 0.316000014543533325 0 0.00306627992540597916
0.820999979972839355 0.442000001668930054 0 0.00286121992394328117
0.820999979972839355 0.56800001859664917 0 0.00264388998039066792
0.820999979972839355 0.694000005722045898 0 0.00241826009005308151
0.820999979972839355 0.820999979972839355 0 0.00219789007678627968
0.820999979972839355 0.947000026702880859 0 0.00200253003276884556
0.820999979972839355 1.07299995422363281 0 0.001784489955753088
0.820999979972839355 1.19900000095367432 0 0.00159303995314985514
0.947000026702880859 -1.19900000095367432 0 0.00149528996553272009
0.947000026702880859 -1.07299995422363281 0 0.00164820998907089233
0.947000026702880859 -0.947000026702880859 0 0.00182224996387958527
0.947000026702880859 -0.820999979972839355 0 0.00198854994960129261
0.947000026702880859 -0.694000005722045898 0 0.00216142996214330196
0.947000026702880859 -0.56800001859664917 0 0.00234376010484993458
0.947000026702880859 -0.442000001668930054 0 0.00247705006040632725
0.947000026702880859 -0.316000014543533325 0 0.00262754992581903934
0.947000026702880859 -0.188999995589256287 0 0.00272240000776946545
0.947000026702880859 -0.0630000010132789612 0 0.00278665008954703808
0.947000026702880859 0.0630000010132789612 0 0.00278167007490992546
0.947000026702880859 0.188999995589256287 0 0.00274153007194399834
0.947000026702880859 0.316000014543533325 0 0.00263819005340337753
0.947000026702880859 0.442000001668930054 0 0.00249480991624295712
0.947000026702880859 0.56800001859664917 0 0.00233301008120179176
0.947000026702880859 0.694000005722045898 0 0.00215908000245690346
0.947000026702880859 0.820999979972839355 0 0.00199506990611553192
0.947000026702880859 0.947000026702880859 0 0.0018367300508543849
0.947000026702880859 1.07299995422363281 0 0.00166911003179848194
0.947000026702880859 1.19900000095367432 0 0.00149054999928921461
1.07299995422363281 -1.19900000095367432 0 0.00136101001407951117
1.07299995422363281 -1.07299995422363281 0 0.00152312999125570059
1.07299995422363281 -0.947000026702880859 0 0.00165820005349814892
1.07299995422363281 -0.820999979972839355 0 0.00179589004255831242
1.07299995422363281 -0.694000005722045898 0 0.00194907002151012421
1.07299995422363281 -0.56800001859664917 0 0.00206545996479690075
1.07299995422363281 -0.442000001668930054 0 0.00217126007191836834
1.07299995422363281 -0.316000014543533325 0 0.00227532000280916691
1.07299995422363281 -0.188999995589256287 0 0.00236157001927495003
1.07299995422363281 -0.0630000010132789612 0 0.00239737005904316902
1.07299995422363281 0.0630000010132789612 0 0.0023914300836622715
1.07299995422363281 0.188999995589256287 0 0.00234628003090620041
1.07299995422363281 0.316000014543533325 0 0.00228811008855700493
1.07299995422363281 0.442000001668930054 0 0.00218614004552364349
1.07299995422363281 0.56800001859664917 0 0.00206360011361539364
1.07299995422363281 0.694000005722045898 0 0.00193458003923296928
1.07299995422363281 0.820999979972839355 0 0.00179689994547516108
1.07299995422363281 0.947000026702880859 0 0.00165910995565354824
1.07299995422363281 1.07299995422363281 0 0.00153193995356559753
1.07299995422363281 1.19900000095367432 0 0.00137783994432538748
1.19900000095367432 -1.19900000095367432 0 0.00125143001787364483
1.19900000095367432 -1.07299995422363281 0 0.00137155002448707819
1.19900000095367432 -0.947000026702880859 0 0.00148914998862892389
1.19900000095367432 -0.820999979972839355 0 0.00159836001694202423
1.19900000095367432 -0.694000005722045898 0 0.00173099001403898001
1.19900000095367432 -0.56800001859664917 0 0.00180629000533372164
1.19900000095367432 -0.442000001668930054 0 0.00189650000538676977
1.19900000095367432 -0.316000014543533325 0 0.00197283993475139141
1.19900000095367432 -0.188999995589256287 0 0.00202571996487677097
1.19900000095367432 -0.0630000010132789612 0 0.00206206995062530041
1.19900000095367432 0.0630000010132789612 0 0.0020594100933521986
1.19900000095367432 0.188999995589256287 0 0.00202287989668548107
1.19900000095367432 0.316000014543533325 0 0.00197555008344352245
1.19900000095367432 0.442000001668930054 0 0.00189723004586994648
1.19900000095367432 0.56800001859664917 0 0.0018123900517821312
1.19900000095367432 0.694000005722045898 0 0.00171340000815689564
1.19900000095367432 0.820999979972839355 0 0.00160197995137423277
1.19900000095367432 0.947000026702880859 0 0.00148865999653935432
1.19900000095367432 1.07299995422363281 0 0.00137853994965553284
1.19900000095367432 1.19900000095367432 0 0.00125529000069946051
3 63 43 42
3 62 63 42
3 20 1 0
3 1 20 21
3 20 41 21
3 41 20 40
3 60 41 40
3 41 60 61
3 41 62 42
3 41 61 62
3 22 41 42
3 41 22 21
3 22 1 21
3 1 22 2
3 22 3 2
3 3 22 23
3 43 22 42
3 23 22 43
3 390 370 389
3 389 370 369
3 260 241 240
3 241 260 261
3 94 113 114
3 113 94 93
3 94 73 93
3 73 94 74
3 32 13 12
3 13 32 33
3 50 30 29
3 50 29 49
3 48 68 49
3 68 69 49
3 144 165 145
3 165 144 164
3 83 64 63
3 64 83 84
3 104 83 103
3 83 104 84
3 230 251 231
3 251 230 250
3 252 251 271
3 272 252 271
3 227 208 207
3 208 227 228
3 248 269 249
3 269 248 268
3 227 248 228
3 248 227 247
3 248 267 268
3 267 248 247
3 204 225 205
3 225 204 224
3 206 227 207
3 227 206 226
3 206 187 186
3 187 206 207
3 225 206 205
3 206 225 226
3 284 263 283
3 263 284 264
3 204 223 224
3 223 204 203
3 227 246 247
3 246 227 226
3 225 246 226
3 246 225 245
3 246 267 247
3 267 246 266
3 223 244 224
3 244 223 243
3 244 263 264
3 263 244 243
3 225 244 245
3 244 225 224
3 244 265 245
3 265 244 264
3 284 265 264
3 265 284 285
3 265 286 266
3 286 265 285
3 246 265 266
3 265 246 245
3 218 219 199
3 218 199 198
3 219 218 239
3 218 238 239
3 127 107 106
3 126 127 106
3 50 70 51
3 70 71 51
3 70 50 49
3 69 70 49
3 367 386 387
3 386 367 366
3 371 390 391
3 371 370 390
3 371 351 350
3 370 371 350
3 340 321 320
3 321 340 341
3 281 260 280
3 260 281 261
3 223 242 243
3 242 223 222
3 242 263 243
3 263 242 262
3 242 241 261
3 242 261 262
3 221 242 222
3 242 221 241
3 221 220 240
3 241 221 240
3 200 181 180
3 200 201 181
3 221 200 220
3 200 221 201
3 223 202 222
3 202 223 203
3 201 202 181
3 181 202 182
3 221 202 201
3 202 221 222
3 386 365 385
3 365 386 366
3 365 384 385
3 365 364 384
3 183 202 203
3 202 183 182
3 183 162 182
3 183 163 162
3 144 143 164
3 143 163 164
3 140 121 120
3 121 140 141
3 161 140 160
3 140 161 141
3 161 160 180
3 181 161 180
3 161 181 182
3 162 161 182
3 197 177 176
3 196 197 176
3 139 158 159
3 158 139 138
3 374 393 394
3 393 374 373
3 395 374 394
3 374 395 375
3 319 338 339
3 338 319 318
3 338 359 339
3 359 338 358
3 36 17 16
3 17 36 37
3 13 34 14
3 34 13 33
3 50 31 30
3 31 50 51
3 11 31 12
3 31 32 12
3 30 10 29
3 29 10 9
3 31 10 30
3 10 31 11
3 52 31 51
3 31 52 32
3 71 52 51
3 72 52 71
3 32 52 33
3 33 52 53
3 52 73 53
3 52 72 73
3 118 139 119
3 139 118 138
3 99 118 119
3 98 118 99
3 47 26 46
3 26 47 27
3 7 26 27
3 26 7 6
3 7 28 8
3 28 7 27
3 47 28 27
3 28 47 48
3 8 28 9
3 28 29 9
3 29 28 49
3 28 48 49
3 185 206 186
3 206 185 205
3 166 185 186
3 185 166 165
3 104 125 105
3 125 104 124
3 125 144 145
3 144 125 124
3 125 126 106
3 105 125 106
3 64 85 65
3 85 64 84
3 66 85 86
3 85 66 65
3 104 85 84
3 85 104 105
3 85 105 106
3 86 85 106
3 229 248 249
3 248 229 228
3 230 229 250
3 229 249 250
3 188 169 168
3 169 188 189
3 208 188 207
3 188 187 207
3 287 267 266
3 286 287 266
3 298 319 299
3 319 298 318
3 279 298 299
3 298 279 278
3 239 258 259
3 238 258 239
3 258 279 259
3 279 258 278
3 68 89 69
3 89 68 88
3 370 349 369
3 349 370 350
3 349 329 328
3 348 349 328
3 330 349 350
3 349 330 329
3 388 368 387
3 368 367 387
3 368 388 389
3 368 389 369
3 349 368 369
3 368 349 348
3 347 326 346
3 326 347 327
3 367 347 366
3 366 347 346
3 347 348 328
3 347 328 327
3 368 347 367
3 347 368 348
3 284 304 285
3 304 305 285
3 304 284 283
3 303 304 283
3 313 334 314
3 334 313 333
3 313 332 333
3 332 313 312
3 393 372 392
3 372 393 373
3 372 391 392
3 372 371 391
3 301 300 320
3 321 301 320
3 300 301 280
3 301 281 280
3 303 322 323
3 322 303 302
3 322 301 321
3 301 322 302
3 303 282 302
3 282 303 283
3 263 282 283
3 282 263 262
3 282 301 302
3 301 282 281
3 281 282 261
3 261 282 262
3 381 360 380
3 360 381 361
3 340 360 341
3 360 361 341
3 82 63 62
3 82 83 63
3 183 184 163
3 163 184 164
3 204 184 203
3 184 183 203
3 184 165 164
3 184 185 165
3 184 204 205
3 185 184 205
3 142 121 141
3 121 142 122
3 161 142 141
3 142 161 162
3 163 142 162
3 143 142 163
3 142 123 122
3 123 142 143
3 123 104 103
3 104 123 124
3 123 143 144
3 123 144 124
3 155 175 156
3 175 176 156
3 212 193 192
3 193 212 213
3 172 193 173
3 193 172 192
3 133 112 132
3 112 133 113
3 131 151 152
3 131 152 132
3 73 92 93
3 72 92 73
3 92 72 71
3 91 92 71
3 92 113 93
3 92 112 113
3 178 179 159
3 158 178 159
3 179 178 199
3 199 178 198
3 197 178 177
3 178 197 198
3 157 158 138
3 157 138 137
3 177 157 176
3 176 157 156
3 157 178 158
3 178 157 177
3 354 334 333
3 353 354 333
3 335 354 355
3 354 335 334
3 374 354 373
3 354 353 373
3 354 375 355
3 354 374 375
3 379 398 399
3 398 379 378
3 378 379 358
3 379 359 358
3 377 398 378
3 398 377 397
3 351 331 350
3 331 330 350
3 331 311 310
3 330 331 310
3 331 332 312
3 331 312 311
3 15 35 16
3 35 36 16
3 35 15 14
3 34 35 14
3 56 75 76
3 75 56 55
3 35 56 36
3 56 35 55
3 54 75 55
3 75 54 74
3 54 73 74
3 73 54 53
3 35 54 55
3 54 35 34
3 54 34 33
3 54 33 53
3 94 95 74
3 95 75 74
3 95 94 114
3 115 95 114
3 75 95 76
3 95 96 76
3 116 95 115
3 95 116 96
3 18 39 19
3 39 18 38
3 18 17 37
3 38 18 37
3 63 44 43
3 64 44 63
3 165 146 145
3 166 146 165
3 146 127 126
3 127 146 147
3 146 125 145
3 125 146 126
3 188 167 187
3 167 188 168
3 167 148 147
3 148 167 168
3 187 167 186
3 167 166 186
3 146 167 147
3 167 146 166
3 67 68 48
3 47 67 48
3 67 47 46
3 66 67 46
3 288 269 268
3 288 289 269
3 267 288 268
3 287 288 267
3 288 309 289
3 309 288 308
3 330 309 329
3 309 330 310
3 329 309 328
3 309 308 328
3 311 290 310
3 291 290 311
3 309 290 289
3 290 309 310
3 188 209 189
3 209 188 208
3 209 208 228
3 229 209 228
3 210 229 230
3 210 209 229
3 150 171 151
3 171 150 170
3 151 171 152
3 171 172 152
3 172 171 192
3 171 191 192
3 251 232 231
3 252 232 251
3 232 211 231
3 211 232 212
3 211 212 192
3 191 211 192
3 211 230 231
3 211 210 230
3 253 252 272
3 253 272 273
3 234 254 255
3 234 255 235
3 306 286 285
3 305 306 285
3 297 298 278
3 297 278 277
3 258 257 278
3 278 257 277
3 257 258 238
3 237 257 238
3 257 276 277
3 276 257 256
3 315 335 336
3 316 315 336
3 335 315 334
3 334 315 314
3 294 315 295
3 315 294 314
3 214 193 213
3 193 214 194
3 257 236 256
3 236 257 237
3 255 236 235
3 236 255 256
3 217 236 237
3 236 217 216
3 218 217 238
3 217 237 238
3 217 218 198
3 197 217 198
3 217 197 196
3 216 217 196
3 324 303 323
3 324 304 303
3 292 272 271
3 291 292 271
3 312 292 311
3 292 291 311
3 352 331 351
3 331 352 332
3 371 352 351
3 372 352 371
3 332 352 333
3 352 353 333
3 352 372 373
3 353 352 373
3 381 362 361
3 362 381 382
3 123 102 122
3 102 123 103
3 83 102 103
3 82 102 83
3 81 60 80
3 60 81 61
3 61 81 62
3 81 82 62
3 195 196 176
3 175 195 176
3 193 174 173
3 174 193 194
3 174 195 175
3 195 174 194
3 174 175 155
3 154 174 155
3 153 133 132
3 152 153 132
3 153 172 173
3 172 153 152
3 174 153 173
3 153 174 154
3 134 154 155
3 135 134 155
3 134 115 114
3 134 135 115
3 134 153 154
3 153 134 133
3 113 134 114
3 133 134 113
3 356 335 355
3 335 356 336
3 58 39 38
3 39 58 59
3 136 157 137
3 157 136 156
3 136 155 156
3 136 135 155
3 136 116 115
3 135 136 115
3 117 118 98
3 97 117 98
3 118 117 138
3 138 117 137
3 116 117 96
3 117 97 96
3 136 117 116
3 117 136 137
3 66 45 65
3 45 66 46
3 45 64 65
3 45 44 64
3 3 24 4
3 24 3 23
3 24 23 43
3 44 24 43
3 107 87 106
3 87 86 106
3 87 66 86
3 87 67 66
3 68 87 88
3 67 87 68
3 269 270 249
3 249 270 250
3 270 251 250
3 251 270 271
3 289 270 269
3 290 270 289
3 270 290 291
3 270 291 271
3 171 190 191
3 190 171 170
3 190 169 189
3 169 190 170
3 211 190 210
3 190 211 191
3 209 190 189
3 210 190 209
3 212 233 213
3 232 233 212
3 233 214 213
3 214 233 234
3 233 232 252
3 253 233 252
3 234 233 254
3 233 253 254
3 307 288 287
3 288 307 308
3 328 307 327
3 308 307 328
3 307 287 286
3 306 307 286
3 307 326 327
3 307 306 326
3 298 317 318
3 297 317 298
3 317 338 318
3 338 317 337
3 317 316 336
3 337 317 336
3 274 253 273
3 253 274 254
3 296 315 316
3 315 296 295
3 296 317 297
3 317 296 316
3 296 297 277
3 276 296 277
3 108 87 107
3 87 108 88
3 169 149 168
3 149 148 168
3 150 149 170
3 149 169 170
3 293 313 314
3 294 293 314
3 293 274 273
3 274 293 294
3 313 293 312
3 293 292 312
3 272 293 273
3 292 293 272
3 343 324 323
3 343 344 324
3 101 121 122
3 102 101 122
3 101 100 120
3 121 101 120
3 101 102 82
3 81 101 82
3 100 101 80
3 101 81 80
3 236 215 235
3 215 236 216
3 215 216 196
3 195 215 196
3 215 234 235
3 215 214 234
3 214 215 194
3 215 195 194
3 395 376 375
3 376 395 396
3 375 376 355
3 376 356 355
3 397 376 396
3 377 376 397
3 357 378 358
3 357 377 378
3 338 357 358
3 357 338 337
3 357 376 377
3 376 357 356
3 356 357 336
3 357 337 336
3 96 77 76
3 97 77 96
3 26 25 46
3 25 45 46
3 5 25 6
3 25 26 6
3 45 25 44
3 25 24 44
3 25 5 4
3 24 25 4
3 254 275 255
3 274 275 254
3 275 294 295
3 275 274 294
3 275 276 256
3 255 275 256
3 296 275 295
3 275 296 276
3 148 128 147
3 128 127 147
3 127 128 107
3 128 108 107
3 149 128 148
3 128 149 129
3 111 92 91
3 92 111 112
3 112 111 132
3 111 131 132
3 90 111 91
3 111 90 110
3 70 90 71
3 90 91 71
3 90 70 69
3 89 90 69
3 130 149 150
3 149 130 129
3 131 130 151
3 130 150 151
3 130 111 110
3 111 130 131
3 109 130 110
3 130 109 129
3 109 89 88
3 108 109 88
3 109 128 129
3 128 109 108
3 109 90 89
3 90 109 110
3 345 365 366
3 345 366 346
3 365 345 364
3 345 344 364
3 384 363 383
3 364 363 384
3 343 363 344
3 344 363 364
3 363 382 383
3 363 362 382
3 361 342 341
3 362 342 361
3 342 321 341
3 342 322 321
3 363 342 362
3 342 363 343
3 322 342 323
3 342 343 323
3 78 99 79
3 78 98 99
3 78 97 98
3 78 77 97
3 59 78 79
3 58 78 59
3 57 38 37
3 57 58 38
3 36 57 37
3 56 57 36
3 57 78 58
3 78 57 77
3 57 56 76
3 77 57 76
3 326 325 346
3 325 345 346
3 344 325 324
3 345 325 344
3 325 306 305
3 306 325 326
3 304 325 305
3 324 325 304
