ply
format ascii 1.0
element vertex 400
property float32 x
property float32 y
property float32 z
property float32 s
element face 722
property list uchar int vertex_indices
end_header
-1.19900000095367432 -1.19900000095367432 0 0.00125541002489626408
-1.19900000095367432 -1.07299995422363281 0 0.00137939001433551311
-1.19900000095367432 -0.947000026702880859 0 0.0014953600475564599
-1.19900000095367432 -0.820999979972839355 0 0.00160754995886236429
-1.19900000095367432 -0.694000005722045898 0 0.00170400994829833508
-1.19900000095367432 -0.56800001859664917 0 0.0018123299814760685
-1.19900000095367432 -0.442000001668930054 0 0.00189054000657051802
-1.19900000095367432 -0.316000014543533325 0 0.00197429000400006771
-1.19900000095367432 -0.188999995589256287 0 0.00203883997164666653
-1.19900000095367432 -0.0630000010132789612 0 0.00206434004940092564
-1.19900000095367432 0.0630000010132789612 0 0.00205665989778935909
-1.19900000095367432 0.188999995589256287 0 0.00202991999685764313
-1.19900000095367432 0.316000014543533325 0 0.00197637011297047138
-1.19900000095367432 0.442000001668930054 0 0.00190329004544764757
-1.19900000095367432 0.56800001859664917 0 0.00182340003084391356
-1.19900000095367432 0.694000005722045898 0 0.00171433994546532631
-1.19900000095367432 0.820999979972839355 0 0.00160635996144264936
-1.19900000095367432 0.947000026702880859 0 0.00149753002915531397
-1.19900000095367432 1.07299995422363281 0 0.0013831800315529108
-1.19900000095367432 1.19900000095367432 0 0.00125611003022640944
-1.07299995422363281 -1.19900000095367432 0 0.00137503002770245075
-1.07299995422363281 -1.07299995422363281 0 0.00152489996980875731
-1.07299995422363281 -0.947000026702880859 0 0.0016638999804854393
-1.07299995422363281 -0.820999979972839355 0 0.0017998300027102232
-1.07299995422363281 -0.694000005722045898 0 0.00192923005670309067
-1.07299995422363281 -0.56800001859664917 0 0.00206392002291977406
-1.07299995422363281 -0.442000001668930054 0 0.0021709599532186985
-1.07299995422363281 -0.316000014543533325 0 0.00226712995208799839
-1.07299995422363281 -0.188999995589256287 0 0.00235259998589754105
-1.07299995422363281 -0.0630000010132789612 0 0.002384949941188097
-1.07299995422363281 0.0630000010132789612 0 0.00239114998839795589
-1.07299995422363281 0.188999995589256287 0 0.00234479992650449276
-1.07299995422363281 0.316000014543533325 0 0.00227912003174424171
-1.07299995422363281 0.442000001668930054 0 0.002178549999371171
-1.07299995422363281 0.56800001859664917 0 0.00206210999749600887
-1.07299995422363281 0.694000005722045898 0 0.00193171005230396986
-1.07299995422363281 0.820999979972839355 0 0.0018012200016528368
-1.07299995422363281 0.947000026702880859 0 0.00166414002887904644
-1.07299995422363281 1.07299995422363281 0 0.00152931001503020525
-1.07299995422363281 1.19900000095367432 0 0.00137240998446941376
-0.947000026702880859 -1.19900000095367432 0 0.00148665998131036758
-0.947000026702880859 -1.07299995422363281 0 0.00166407995857298374
-0.947000026702880859 -0.947000026702880859 0 0.00183005002327263355
-0.947000026702880859 -0.820999979972839355 0 0.00199063005857169628
-0.947000026702880859 -0.694000005722045898 0 0.00216653989627957344
-0.947000026702880859 -0.56800001859664917 0 0.00232626008801162243
-0.947000026702880859 -0.442000001668930054 0 0.00248356000520288944
-0.947000026702880859 -0.316000014543533325 0 0.00261062011122703552
-0.947000026702880859 -0.188999995589256287 0 0.00272313994355499744
-0.947000026702880859 -0.0630000010132789612 0 0.00276940991170704365
-0.947000026702880859 0.0630000010132789612 0 0.00278635998256504536
-0.947000026702880859 0.188999995589256287 0 0.00272026006132364273
-0.947000026702880859 0.316000014543533325 0 0.0026053600013256073
-0.947000026702880859 0.442000001668930054 0 0.00248107011429965496
-0.947000026702880859 0.56800001859664917 0 0.00232599000446498394
-0.947000026702880859 0.694000005722045898 0 0.00216353009454905987
-0.947000026702880859 0.820999979972839355 0 0.00199071993120014668
-0.947000026702880859 0.947000026702880859 0 0.00182326999492943287
-0.947000026702880859 1.07299995422363281 0 0.00166220997925847769
-0.947000026702880859 1.19900000095367432 0 0.00149356003385037184
-0.820999979972839355 -1.19900000095367432 0 0.00160819001030176878
-0.820999979972839355 -1.07299995422363281 0 0.00180199998430907726
-0.820999979972839355 -0.947000026702880859 0 0.00199848995544016361
-0.820999979972839355 -0.820999979972839355 0 0.00218989001587033272
-0.820999979972839355 -0.694000005722045898 0 0.00240649003535509109
-0.820999979972839355 -0.56800001859664917 0 0.0026410100981593132
-0.820999979972839355 -0.442000001668930054 0 0.00283809006214141846
-0.820999979972839355 -0.316000014543533325 0 0.00303365988656878471
-0.820999979972839355 -0.188999995589256287 0 0.00317897996865212917
-0.820999979972839355 -0.0630000010132789612 0 0.00326797994785010815
-0.820999979972839355 0.0630000010132789612 0 0.00327235995791852474
-0.820999979972839355 0.188999995589256287 0 0.0031827299389988184
-0.820999979972839355 0.316000014543533325 0 0.00302526005543768406
-0.820999979972839355 0.442000001668930054 0 0.00282820011489093304
-0.820999979972839355 0.56800001859664917 0 0.00262474990449845791
-0.820999979972839355 0.694000005722045898 0 0.0024021700955927372
-0.820999979972839355 0.820999979972839355 0 0.00219247001223266125
-0.820999979972839355 0.947000026702880859 0 0.0019927099347114563
-0.820999979972839355 1.07299995422363281 0 0.00179379002656787634
-0.820999979972839355 1.19900000095367432 0 0.0016048400430008769
-0.694000005722045898 -1.19900000095367432 0 0.00171990005765110254
-0.694000005722045898 -1.07299995422363281 0 0.00194079999346286058
-0.694000005722045898 -0.947000026702880859 0 0.00216256990097463131
-0.694000005722045898 -0.820999979972839355 0 0.00241008005104959011
-0.694000005722045898 -0.694000005722045898 0 0.00267472001723945141
-0.694000005722045898 -0.56800001859664917 0 0.00298247998580336571
-0.694000005722045898 -0.442000001668930054 0 0.00328000006265938282
-0.694000005722045898 -0.316000014543533325 0 0.00356412003748118877
-0.694000005722045898 -0.188999995589256287 0 0.00378588004969060421
-0.694000005722045898 -0.0630000010132789612 0 0.00391949992626905441
-0.694000005722045898 0.0630000010132789612 0 0.00393899017944931984
-0.694000005722045898 0.188999995589256287 0 0.00378872989676892757
-0.694000005722045898 0.316000014543533325 0 0.00355578004382550716
-0.694000005722045898 0.442000001668930054 0 0.00327889993786811829
-0.694000005722045898 0.56800001859664917 0 0.00295989005826413631
-0.694000005722045898 0.694000005722045898 0 0.00266352994367480278
-0.694000005722045898 0.820999979972839355 0 0.00241343001835048199
-0.694000005722045898 0.947000026702880859 0 0.00216267001815140247
-0.694000005722045898 1.07299995422363281 0 0.00193551997654139996
-0.694000005722045898 1.19900000095367432 0 0.001707080053165555
-0.56800001859664917 -1.19900000095367432 0 0.00182133994530886412
-0.56800001859664917 -1.07299995422363281 0 0.00206736009567975998
-0.56800001859664917 -0.947000026702880859 0 0.00233025010675191879
-0.56800001859664917 -0.820999979972839355 0 0.00262394989840686321
-0.56800001859664917 -0.694000005722045898 0 0.00296751991845667362
-0.56800001859664917 -0.56800001859664917 0 0.00337008992210030556
-0.56800001859664917 -0.442000001668930054 0 0.00380865996703505516
-0.56800001859664917 -0.316000014543533325 0 0.00425870995968580246
-0.56800001859664917 -0.188999995589256287 0 0.00466899015009403229
-0.56800001859664917 -0.0630000010132789612 0 0.00492072990164160728
-0.56800001859664917 0.0630000010132789612 0 0.00492544984444975853
-0.56800001859664917 0.188999995589256287 0 0.00466918013989925385
-0.56800001859664917 0.316000014543533325 0 0.00426574982702732086
-0.56800001859664917 0.442000001668930054 0 0.0037954400759190321
-0.56800001859664917 0.56800001859664917 0 0.00335427001118659973
-0.56800001859664917 0.694000005722045898 0 0.00297408993355929852
-0.56800001859664917 0.820999979972839355 0 0.00262512010522186756
-0.56800001859664917 0.947000026702880859 0 0.00231558992527425289
-0.56800001859664917 1.07299995422363281 0 0.00205387989990413189
-0.56800001859664917 1.19900000095367432 0 0.00180612003896385431
-0.442000001668930054 -1.19900000095367432 0 0.00191079999785870314
-0.442000001668930054 -1.07299995422363281 0 0.00218838010914623737
-0.442000001668930054 -0.947000026702880859 0 0.00249681994318962097
-0.442000001668930054 -0.820999979972839355 0 0.00285022007301449776
-0.442000001668930054 -0.694000005722045898 0 0.0032672099769115448
-0.442000001668930054 -0.56800001859664917 0 0.00379013991914689541
-0.442000001668930054 -0.442000001668930054 0 0.00445068022236227989
-0.442000001668930054 -0.316000014543533325 0 0.00525043020024895668
-0.442000001668930054 -0.188999995589256287 0 0.00607261015102267265
-0.442000001668930054 -0.0630000010132789612 0 0.00674836011603474617
-0.442000001668930054 0.0630000010132789612 0 0.00675044022500514984
-0.442000001668930054 0.188999995589256287 0 0.00607343018054962158
-0.442000001668930054 0.316000014543533325 0 0.00524553004652261734
-0.442000001668930054 0.442000001668930054 0 0.00445643998682498932
-0.442000001668930054 0.56800001859664917 0 0.00380281009711325169
-0.442000001668930054 0.694000005722045898 0 0.00326871010474860668
-0.442000001668930054 0.820999979972839355 0 0.00282932003028690815
-0.442000001668930054 0.947000026702880859 0 0.00247177993878722191
-0.442000001668930054 1.07299995422363281 0 0.00217553996481001377
-0.442000001668930054 1.19900000095367432 0 0.00189164001494646072
-0.316000014543533325 -1.19900000095367432 0 0.00196910998784005642
-0.316000014543533325 -1.07299995422363281 0 0.00227621011435985565
-0.316000014543533325 -0.947000026702880859 0 0.00261298008263111115
-0.316000014543533325 -0.820999979972839355 0 0.00304196006618440151
-0.316000014543533325 -0.694000005722045898 0 0.00357681000605225563
-0.316000014543533325 -0.56800001859664917 0 0.00427163019776344299
-0.316000014543533325 -0.442000001668930054 0 0.00523335020989179611
-0.316000014543533325 -0.316000014543533325 0 0.00673570996150374413
-0.316000014543533325 -0.188999995589256287 0 0.0087276902049779892
-0.316000014543533325 -0.0630000010132789612 0 0.00994713045656681061
-0.316000014543533325 0.0630000010132789612 0 0.0099306497722864151
-0.316000014543533325 0.188999995589256287 0 0.00871425960212945938
-0.316000014543533325 0.316000014543533325 0 0.00674659013748168945
-0.316000014543533325 0.442000001668930054 0 0.00523607013747096062
-0.316000014543533325 0.56800001859664917 0 0.00425386987626552582
-0.316000014543533325 0.694000005722045898 0 0.0035590101033449173
-0.316000014543533325 0.820999979972839355 0 0.00302469008602201939
-0.316000014543533325 0.947000026702880859 0 0.00261161988601088524
-0.316000014543533325 1.07299995422363281 0 0.002274360042065382
-0.316000014543533325 1.19900000095367432 0 0.00197279988788068295
-0.188999995589256287 -1.19900000095367432 0 0.00203043990768492222
-0.188999995589256287 -1.07299995422363281 0 0.00235906988382339478
-0.188999995589256287 -0.947000026702880859 0 0.00272205006331205368
-0.188999995589256287 -0.820999979972839355 0 0.00317807006649672985
-0.188999995589256287 -0.694000005722045898 0 0.00378423999063670635
-0.188999995589256287 -0.56800001859664917 0 0.00467000994831323624
-0.188999995589256287 -0.442000001668930054 0 0.00607185019180178642
-0.188999995589256287 -0.316000014543533325 0 0.00869353022426366806
-0.188999995589256287 -0.188999995589256287 0 0.0113559998571872711
-0.188999995589256287 -0.0630000010132789612 0 0.0134202996268868446
-0.188999995589256287 0.0630000010132789612 0 0.013457699678838253
-0.188999995589256287 0.188999995589256287 0 0.0113735999912023544
-0.188999995589256287 0.316000014543533325 0 0.00870732031762599945
-0.188999995589256287 0.442000001668930054 0 0.00607204018160700798
-0.188999995589256287 0.56800001859664917 0 0.00465596979483962059
-0.188999995589256287 0.694000005722045898 0 0.0037722298875451088
-0.188999995589256287 0.820999979972839355 0 0.00316255004145205021
-0.188999995589256287 0.947000026702880859 0 0.00270937010645866394
-0.188999995589256287 1.07299995422363281 0 0.00234282994642853737
-0.188999995589256287 1.19900000095367432 0 0.00201830989681184292
-0.0630000010132789612 -1.19900000095367432 0 0.00205942010506987572
-0.0630000010132789612 -1.07299995422363281 0 0.00239606993272900581
-0.0630000010132789612 -0.947000026702880859 0 0.00277987006120383739
-0.0630000010132789612 -0.820999979972839355 0 0.00328519009053707123
-0.0630000010132789612 -0.694000005722045898 0 0.00395515002310276031
-0.0630000010132789612 -0.56800001859664917 0 0.00493382010608911514
-0.0630000010132789612 -0.442000001668930054 0 0.00674122991040349007
-0.0630000010132789612 -0.316000014543533325 0 0.00993429962545633316
-0.0630000010132789612 -0.188999995589256287 0 0.0134541001170873642
-0.0630000010132789612 -0.0630000010132789612 0 0.0187845993787050247
-0.0630000010132789612 0.0630000010132789612 0 0.0188583005219697952
-0.0630000010132789612 0.188999995589256287 0 0.0134631004184484482
-0.0630000010132789612 0.316000014543533325 0 0.00989514030516147614
-0.0630000010132789612 0.442000001668930054 0 0.00672751991078257561
-0.0630000010132789612 0.56800001859664917 0 0.00491411006078124046
-0.0630000010132789612 0.694000005722045898 0 0.0039227600209414959
-0.0630000010132789612 0.820999979972839355 0 0.00326476991176605225
-0.0630000010132789612 0.947000026702880859 0 0.00276884995400905609
-0.0630000010132789612 1.07299995422363281 0 0.00237245997413992882
-0.0630000010132789612 1.19900000095367432 0 0.00204325001686811447
0.0630000010132789612 -1.19900000095367432 0 0.00206601992249488831
0.0630000010132789612 -1.07299995422363281 0 0.00239645992405712605
0.0630000010132789612 -0.947000026702880859 0 0.00278988992795348167
0.0630000010132789612 -0.820999979972839355 0 0.003283289959654212
0.0630000010132789612 -0.694000005722045898 0 0.0039476100355386734
0.0630000010132789612 -0.56800001859664917 0 0.00492712995037436485
0.0630000010132789612 -0.442000001668930054 0 0.00672043021768331528
0.0630000010132789612 -0.316000014543533325 0 0.0099157998338341713
0.0630000010132789612 -0.188999995589256287 0 0.0134138995781540871
0.0630000010132789612 -0.0630000010132789612 0 0.0188027005642652512
0.0630000010132789612 0.0630000010132789612 0 0.0188408996909856796
0.0630000010132789612 0.188999995589256287 0 0.0134592000395059586
0.0630000010132789612 0.316000014543533325 0 0.00989461969584226608
0.0630000010132789612 0.442000001668930054 0 0.00672145001590251923
0.0630000010132789612 0.56800001859664917 0 0.00490602012723684311
0.0630000010132789612 0.694000005722045898 0 0.00391757022589445114
0.0630000010132789612 0.820999979972839355 0 0.00325605995021760464
0.0630000010132789612 0.947000026702880859 0 0.00277218990959227085
0.0630000010132789612 1.07299995422363281 0 0.00239270995371043682
0.0630000010132789612 1.19900000095367432 0 0.0020592899527400732
0.188999995589256287 -1.19900000095367432 0 0.00203136005438864231
0.188999995589256287 -1.07299995422363281 0 0.00234739994630217552
0.188999995589256287 -0.947000026702880859 0 0.00271068001165986061
0.188999995589256287 -0.820999979972839355 0 0.00318030989728868008
0.188999995589256287 -0.694000005722045898 0 0.00378983002156019211
0.188999995589256287 -0.56800001859664917 0 0.00466705020517110825
0.188999995589256287 -0.442000001668930054 0 0.00606573978438973427
0.188999995589256287 -0.316000014543533325 0 0.00870291981846094131
0.188999995589256287 -0.188999995589256287 0 0.0113498996943235397
0.188999995589256287 -0.0630000010132789612 0 0.013494499959051609
0.188999995589256287 0.0630000010132789612 0 0.013440299779176712
0.188999995589256287 0.188999995589256287 0 0.011403299868106842
0.188999995589256287 0.316000014543533325 0 0.00870203971862792969
0.188999995589256287 0.442000001668930054 0 0.00605562981218099594
0.188999995589256287 0.56800001859664917 0 0.00464128004387021065
0.188999995589256287 0.694000005722045898 0 0.00377520988695323467
0.188999995589256287 0.820999979972839355 0 0.00318136997520923615
0.188999995589256287 0.947000026702880859 0 0.0027134499978274107
0.188999995589256287 1.07299995422363281 0 0.00233884993940591812
0.188999995589256287 1.19900000095367432 0 0.00202768994495272636
0.316000014543533325 -1.19900000095367432 0 0.00195747008547186852
0.316000014543533325 -1.07299995422363281 0 0.00227323011495172977
0.316000014543533325 -0.947000026702880859 0 0.00263466988690197468
0.316000014543533325 -0.820999979972839355 0 0.00304595008492469788
0.316000014543533325 -0.694000005722045898 0 0.00356104993261396885
0.316000014543533325 -0.56800001859664917 0 0.00424575991928577423
0.316000014543533325 -0.442000001668930054 0 0.00520804012194275856
0.316000014543533325 -0.316000014543533325 0 0.00674383016303181648
0.316000014543533325 -0.188999995589256287 0 0.00870449002832174301
0.316000014543533325 -0.0630000010132789612 0 0.00992252025753259659
0.316000014543533325 0.0630000010132789612 0 0.00992138031870126724
0.316000014543533325 0.188999995589256287 0 0.00873715989291667938
0.316000014543533325 0.316000014543533325 0 0.00673455977812409401
0.316000014543533325 0.442000001668930054 0 0.00522807985544204712
0.316000014543533325 0.56800001859664917 0 0.00425872020423412323
0.316000014543533325 0.694000005722045898 0 0.00355645990930497646
0.316000014543533325 0.820999979972839355 0 0.00303017999976873398
0.316000014543533325 0.947000026702880859 0 0.0026189400814473629
0.316000014543533325 1.07299995422363281 0 0.00227030995301902294
0.316000014543533325 1.19900000095367432 0 0.00197338010184466839
0.442000001668930054 -1.19900000095367432 0 0.00191502005327492952
0.442000001668930054 -1.07299995422363281 0 0.00218266993761062622
0.442000001668930054 -0.947000026702880859 0 0.00248645991086959839
0.442000001668930054 -0.820999979972839355 0 0.00283521995879709721
0.442000001668930054 -0.694000005722045898 0 0.00326008000411093235
0.442000001668930054 -0.56800001859664917 0 0.00380087993107736111
0.442000001668930054 -0.442000001668930054 0 0.00445955013856291771
0.442000001668930054 -0.316000014543533325 0 0.00524138985201716423
0.442000001668930054 -0.188999995589256287 0 0.00607476010918617249
0.442000001668930054 -0.0630000010132789612 0 0.00673553021624684334
0.442000001668930054 0.0630000010132789612 0 0.00673593021929264069
0.442000001668930054 0.188999995589256287 0 0.00609157001599669456
0.442000001668930054 0.316000014543533325 0 0.00524104014039039612
0.442000001668930054 0.442000001668930054 0 0.00446435017511248589
0.442000001668930054 0.56800001859664917 0 0.00381333008408546448
0.442000001668930054 0.694000005722045898 0 0.00326572009362280369
0.442000001668930054 0.820999979972839355 0 0.00284409010782837868
0.442000001668930054 0.947000026702880859 0 0.00248385989107191563
0.442000001668930054 1.07299995422363281 0 0.00216991989873349667
0.442000001668930054 1.19900000095367432 0 0.00189356994815170765
0.56800001859664917 -1.19900000095367432 0 0.00182200002018362284
0.56800001859664917 -1.07299995422363281 0 0.00206454005092382431
0.56800001859664917 -0.947000026702880859 0 0.0023265499621629715
0.56800001859664917 -0.820999979972839355 0 0.00262577994726598263
0.56800001859664917 -0.694000005722045898 0 0.00296677998267114162
0.56800001859664917 -0.56800001859664917 0 0.00337476003915071487
0.56800001859664917 -0.442000001668930054 0 0.00380367995239794254
0.56800001859664917 -0.316000014543533325 0 0.00425788015127182007
0.56800001859664917 -0.188999995589256287 0 0.00467630987986922264
0.56800001859664917 -0.0630000010132789612 0 0.00491430982947349548
0.56800001859664917 0.0630000010132789612 0 0.00493900012224912643
0.56800001859664917 0.188999995589256287 0 0.00468837982043623924
0.56800001859664917 0.316000014543533325 0 0.00428326986730098724
0.56800001859664917 0.442000001668930054 0 0.00379467010498046875
0.56800001859664917 0.56800001859664917 0 0.00336842006072402
0.56800001859664917 0.694000005722045898 0 0.00298359990119934082
0.56800001859664917 0.820999979972839355 0 0.00263205007649958134
0.56800001859664917 0.947000026702880859 0 0.00233396003022789955
0.56800001859664917 1.07299995422363281 0 0.00206837011501193047
0.56800001859664917 1.19900000095367432 0 0.00181223999243229628
0.694000005722045898 -1.19900000095367432 0 0.00170887005515396595
0.694000005722045898 -1.07299995422363281 0 0.00193164998199790716
0.694000005722045898 -0.947000026702880859 0 0.00215456006117165089
0.694000005722045898 -0.820999979972839355 0 0.00239286990836262703
0.694000005722045898 -0.694000005722045898 0 0.0026777100283652544
0.694000005722045898 -0.56800001859664917 0 0.00298566999845206738
0.694000005722045898 -0.442000001668930054 0 0.00328580988571047783
0.694000005722045898 -0.316000014543533325 0 0.0035495399497449398
0.694000005722045898 -0.188999995589256287 0 0.00380498007871210575
0.694000005722045898 -0.0630000010132789612 0 0.00392143987119197845
0.694000005722045898 0.0630000010132789612 0 0.00394700979813933372
0.694000005722045898 0.188999995589256287 0 0.00380717008374631405
0.694000005722045898 0.316000014543533325 0 0.00358581007458269596
0.694000005722045898 0.442000001668930054 0 0.00328345992602407932
0.694000005722045898 0.56800001859664917 0 0.00295356009155511856
0.694000005722045898 0.694000005722045898 0 0.00268467003479599953
0.694000005722045898 0.820999979972839355 0 0.00241428008303046227
0.694000005722045898 0.947000026702880859 0 0.0021624700166285038
0.694000005722045898 1.07299995422363281 0 0.00193155999295413494
0.694000005722045898 1.19900000095367432 0 0.00171686999965459108
0.820999979972839355 -1.19900000095367432 0 0.00160598999354988337
0.820999979972839355 -1.07299995422363281 0 0.0017950000474229455
0.820999979972839355 -0.947000026702880859 0 0.00198497995734214783
0.820999979972839355 -0.820999979972839355 0 0.00219122995622456074
0.820999979972839355 -0.694000005722045898 0 0.00242014997638761997
0.820999979972839355 -0.56800001859664917 0 0.00263170991092920303
0.820999979972839355 -0.442000001668930054 0 0.00284000998362898827
0.820999979972839355 -0.316000014543533325 0 0.0030240500345826149
0.820999979972839355 -0.188999995589256287 0 0.00318367010913789272
0.820999979972839355 -0.0630000010132789612 0 0.00327344005927443504
0.820999979972839355 0.0630000010132789612 0 0.00326431007124483585
0.820999979972839355 0.188999995589256287 0 0.00319182011298835278
0.820999979972839355 0.316000014543533325 0 0.00303817004896700382
0.820999979972839355 0.442000001668930054 0 0.00285784993320703506
0.820999979972839355 0.56800001859664917 0 0.00263627991080284119
0.820999979972839355 0.694000005722045898 0 0.00240123993717133999
0.820999979972839355 0.820999979972839355 0 0.00219607003964483738
0.820999979972839355 0.947000026702880859 0 0.00198483001440763474
0.820999979972839355 1.07299995422363281 0 0.00178888998925685883
0.820999979972839355 1.19900000095367432 0 0.00159889995120465755
0.947000026702880859 -1.19900000095367432 0 0.00148946000263094902
0.947000026702880859 -1.07299995422363281 0 0.00165933999232947826
0.947000026702880859 -0.947000026702880859 0 0.00182350003160536289
0.947000026702880859 -0.820999979972839355 0 0.00199323007836937904
0.947000026702880859 -0.694000005722045898 0 0.00216314010322093964
0.947000026702880859 -0.56800001859664917 0 0.00233494001440703869
0.947000026702880859 -0.442000001668930054 0 0.00248493999242782593
0.947000026702880859 -0.316000014543533325 0 0.002614219905808568
0.947000026702880859 -0.188999995589256287 0 0.00271138991229236126
0.947000026702880859 -0.0630000010132789612 0 0.00276620988734066486
0.947000026702880859 0.0630000010132789612 0 0.00277664000168442726
0.947000026702880859 0.188999995589256287 0 0.00272524007596075535
0.947000026702880859 0.316000014543533325 0 0.00262314011342823505
0.947000026702880859 0.442000001668930054 0 0.00247842003591358662
0.947000026702880859 0.56800001859664917 0 0.00234149000607430935
0.947000026702880859 0.694000005722045898 0 0.00216421997174620628
0.947000026702880859 0.820999979972839355 0 0.0019960401114076376
0.947000026702880859 0.947000026702880859 0 0.00183523003943264484
0.947000026702880859 1.07299995422363281 0 0.00166217994410544634
0.947000026702880859 1.19900000095367432 0 0.00149029004387557507
1.07299995422363281 -1.19900000095367432 0 0.00137327995616942644
1.07299995422363281 -1.07299995422363281 0 0.00151925999671220779
1.07299995422363281 -0.947000026702880859 0 0.00166637997608631849
1.07299995422363281 -0.820999979972839355 0 0.00180014001671224833
1.07299995422363281 -0.694000005722045898 0 0.00194390001706779003
1.07299995422363281 -0.56800001859664917 0 0.00206845998764038086
1.07299995422363281 -0.442000001668930054 0 0.00216261995956301689
1.07299995422363281 -0.316000014543533325 0 0.00225824001245200634
1.07299995422363281 -0.188999995589256287 0 0.00235006003640592098
1.07299995422363281 -0.0630000010132789612 0 0.00238233990967273712
1.07299995422363281 0.0630000010132789612 0 0.00238764006644487381
1.07299995422363281 0.188999995589256287 0 0.00234480993822216988
1.07299995422363281 0.316000014543533325 0 0.00228260993026196957
1.07299995422363281 0.442000001668930054 0 0.00217858003452420235
1.07299995422363281 0.56800001859664917 0 0.00206771004013717175
1.07299995422363281 0.694000005722045898 0 0.00194589002057909966
1.07299995422363281 0.820999979972839355 0 0.00179887004196643829
1.07299995422363281 0.947000026702880859 0 0.00166295003145933151
1.07299995422363281 1.07299995422363281 0 0.00153528002556413412
1.07299995422363281 1.19900000095367432 0 0.00137643003836274147
1.19900000095367432 -1.19900000095367432 0 0.00124687002971768379
1.19900000095367432 -1.07299995422363281 0 0.00138380995485931635
1.19900000095367432 -0.947000026702880859 0 0.00149115000385791063
1.19900000095367432 -0.820999979972839355 0 0.00160478998441249132
1.19900000095367432 -0.694000005722045898 0 0.00172514002770185471
1.19900000095367432 -0.56800001859664917 0 0.0018208799883723259
1.19900000095367432 -0.442000001668930054 0 0.00189002999104559422
1.19900000095367432 -0.316000014543533325 0 0.00196304009296000004
1.19900000095367432 -0.188999995589256287 0 0.00203136005438864231
1.19900000095367432 -0.0630000010132789612 0 0.0020558300893753767
1.19900000095367432 0.0630000010132789612 0 0.00205605989322066307
1.19900000095367432 0.188999995589256287 0 0.00202885991893708706
1.19900000095367432 0.316000014543533325 0 0.00196846993640065193
1.19900000095367432 0.442000001668930054 0 0.00190906005445867777
1.19900000095367432 0.56800001859664917 0 0.00180701003409922123
1.19900000095367432 0.694000005722045898 0 0.00172377005219459534
1.19900000095367432 0.820999979972839355 0 0.00161379994824528694
1.19900000095367432 0.947000026702880859 0 0.00148745998740196228
1.19900000095367432 1.07299995422363281 0 0.00138781999703496695
1.19900000095367432 1.19900000095367432 0 0.0012527999933809042
3 63 43 42
3 62 63 42
3 20 1 0
3 1 20 21
3 20 41 21
3 41 20 40
3 60 41 40
3 41 60 61
3 41 62 42
3 41 61 62
3 22 41 42
3 41 22 21
3 22 1 21
3 1 22 2
3 22 3 2
3 3 22 23
3 43 22 42
3 23 22 43
3 390 370 389
3 389 370 369
3 260 241 240
3 241 260 261
3 94 113 114
3 113 94 93
3 94 73 93
3 73 94 74
3 32 13 12
3 13 32 33
3 50 30 29
3 50 29 49
3 48 68 49
3 68 69 49
3 144 165 145
3 165 144 164
3 83 64 63
3 64 83 84
3 104 83 103
3 83 104 84
3 230 251 231
3 251 230 250
3 252 251 271
3 272 252 271
3 227 208 207
3 208 227 228
3 248 269 249
3 269 248 268
3 227 248 228
3 248 227 247
3 248 267 268
3 267 248 247
3 204 225 205
3 225 204 224
3 206 227 207
3 227 206 226
3 206 187 186
3 187 206 207
3 225 206 205
3 206 225 226
3 284 263 283
3 263 284 264
3 204 223 224
3 223 204 203
3 227 246 247
3 246 227 226
3 225 246 226
3 246 225 245
3 246 267 247
3 267 246 266
3 223 244 224
3 244 223 243
3 244 263 264
3 263 244 243
3 225 244 245
3 244 225 224
3 244 265 245
3 265 244 264
3 284 265 264
3 265 284 285
3 265 286 266
3 286 265 285
3 246 265 266
3 265 246 245
3 218 219 199
3 218 199 198
3 219 218 239
3 218 238 239
3 127 107 106
3 126 127 106
3 50 70 51
3 70 71 51
3 70 50 49
3 69 70 49
3 367 386 387
3 386 367 366
3 371 390 391
3 371 370 390
3 371 351 350
3 370 371 350
3 340 321 320
3 321 340 341
3 281 260 280
3 260 281 261
3 223 242 243
3 242 223 222
3 242 263 243
3 263 242 262
3 242 241 261
3 242 261 262
3 221 242 222
3 242 221 241
3 221 220 240
3 241 221 240
3 200 181 180
3 200 201 181
3 221 200 220
3 200 221 201
3 223 202 222
3 202 223 203
3 201 202 181
3 181 202 182
3 221 202 201
3 202 221 222
3 386 365 385
3 365 386 366
3 365 384 385
3 365 364 384
3 183 202 203
3 202 183 182
3 183 162 182
3 183 163 162
3 144 143 164
3 143 163 164
3 140 121 120
3 121 140 141
3 161 140 160
3 140 161 141
3 161 160 180
3 181 161 180
3 161 181 182
3 162 161 182
3 197 177 176
3 196 197 176
3 139 158 159
3 158 139 138
3 374 393 394
3 393 374 373
3 395 374 394
3 374 395 375
3 319 338 339
3 338 319 318
3 338 359 339
3 359 338 358
3 36 17 16
3 17 36 37
3 13 34 14
3 34 13 33
3 50 31 30
3 31 50 51
3 11 31 12
3 31 32 12
3 30 10 29
3 29 10 9
3 31 10 30
3 10 31 11
3 52 31 51
3 31 52 32
3 71 52 51
3 72 52 71
3 32 52 33
3 33 52 53
3 52 73 53
3 52 72 73
3 118 139 119
3 139 118 138
3 99 118 119
3 98 118 99
3 47 26 46
3 26 47 27
3 7 26 27
3 26 7 6
3 7 28 8
3 28 7 27
3 47 28 27
3 28 47 48
3 8 28 9
3 28 29 9
3 29 28 49
3 28 48 49
3 185 206 186
3 206 185 205
3 166 185 186
3 185 166 165
3 104 125 105
3 125 104 124
3 125 144 145
3 144 125 124
3 125 126 106
3 105 125 106
3 64 85 65
3 85 64 84
3 66 85 86
3 85 66 65
3 104 85 84
3 85 104 105
3 85 105 106
3 86 85 106
3 229 248 249
3 248 229 228
3 230 229 250
3 229 249 250
3 188 169 168
3 169 188 189
3 208 188 207
3 188 187 207
3 287 267 266
3 286 287 266
3 298 319 299
3 319 298 318
3 279 298 299
3 298 279 278
3 239 258 259
3 238 258 239
3 258 279 259
3 279 258 278
3 68 89 69
3 89 68 88
3 370 349 369
3 349 370 350
3 349 329 328
3 348 349 328
3 330 349 350
3 349 330 329
3 388 368 387
3 368 367 387
3 368 388 389
3 368 389 369
3 349 368 369
3 368 349 348
3 347 326 346
3 326 347 327
3 367 347 366
3 366 347 346
3 347 348 328
3 347 328 327
3 368 347 367
3 347 368 348
3 284 304 285
3 304 305 285
3 304 284 283
3 303 304 283
3 313 334 314
3 334 313 333
3 313 332 333
3 332 313 312
3 393 372 392
3 372 393 373
3 372 391 392
3 372 371 391
3 301 300 320
3 321 301 320
3 300 301 280
3 301 281 280
3 303 322 323
3 322 303 302
3 322 301 321
3 301 322 302
3 303 282 302
3 282 303 283
3 263 282 283
3 282 263 262
3 282 301 302
3 301 282 281
3 281 282 261
3 261 282 262
3 381 360 380
3 360 381 361
3 340 360 341
3 360 361 341
3 82 63 62
3 82 83 63
3 183 184 163
3 163 184 164
3 204 184 203
3 184 183 203
3 184 165 164
3 184 185 165
3 184 204 205
3 185 184 205
3 142 121 141
3 121 142 122
3 161 142 141
3 142 161 162
3 163 142 162
3 143 142 163
3 142 123 122
3 123 142 143
3 123 104 103
3 104 123 124
3 123 143 144
3 123 144 124
3 155 175 156
3 175 176 156
3 212 193 192
3 193 212 213
3 172 193 173
3 193 172 192
3 133 112 132
3 112 133 113
3 131 151 152
3 131 152 132
3 73 92 93
3 72 92 73
3 92 72 71
3 91 92 71
3 92 113 93
3 92 112 113
3 178 179 159
3 158 178 159
3 179 178 199
3 199 178 198
3 197 178 177
3 178 197 198
3 157 158 138
3 157 138 137
3 177 157 176
3 176 157 156
3 157 178 158
3 178 157 177
3 354 334 333
3 353 354 333
3 335 354 355
3 354 335 334
3 374 354 373
3 354 353 373
3 354 375 355
3 354 374 375
3 379 398 399
3 398 379 378
3 378 379 358
3 379 359 358
3 377 398 378
3 398 377 397
3 351 331 350
3 331 330 350
3 331 311 310
3 330 331 310
3 331 332 312
3 331 312 311
3 15 35 16
3 35 36 16
3 35 15 14
3 34 35 14
3 56 75 76
3 75 56 55
3 35 56 36
3 56 35 55
3 54 75 55
3 75 54 74
3 54 73 74
3 73 54 53
3 35 54 55
3 54 35 34
3 54 34 33
3 54 33 53
3 94 95 74
3 95 75 74
3 95 94 114
3 115 95 114
3 75 95 76
3 95 96 76
3 116 95 115
3 95 116 96
3 18 39 19
3 39 18 38
3 18 17 37
3 38 18 37
3 63 44 43
3 64 44 63
3 165 146 145
3 166 146 165
3 146 127 126
3 127 146 147
3 146 125 145
3 125 146 126
3 188 167 187
3 167 188 168
3 167 148 147
3 148 167 168
3 187 167 186
3 167 166 186
3 146 167 147
3 167 146 166
3 67 68 48
3 47 67 48
3 67 47 46
3 66 67 46
3 288 269 268
3 288 289 269
3 267 288 268
3 287 288 267
3 288 309 289
3 309 288 308
3 330 309 329
3 309 330 310
3 329 309 328
3 309 308 328
3 311 290 310
3 291 290 311
3 309 290 289
3 290 309 310
3 188 209 189
3 209 188 208
3 209 208 228
3 229 209 228
3 210 229 230
3 210 209 229
3 150 171 151
3 171 150 170
3 151 171 152
3 171 172 152
3 172 171 192
3 171 191 192
3 251 232 231
3 252 232 251
3 232 211 231
3 211 232 212
3 211 212 192
3 191 211 192
3 211 230 231
3 211 210 230
3 253 252 272
3 253 272 273
3 234 254 255
3 234 255 235
3 306 286 285
3 305 306 285
3 297 298 278
3 297 278 277
3 258 257 278
3 278 257 277
3 257 258 238
3 237 257 238
3 257 276 277
3 276 257 256
3 315 335 336
3 316 315 336
3 335 315 334
3 334 315 314
3 294 315 295
3 315 294 314
3 214 193 213
3 193 214 194
3 257 236 256
3 236 257 237
3 255 236 235
3 236 255 256
3 217 236 237
3 236 217 216
3 218 217 238
3 217 237 238
3 217 218 198
3 197 217 198
3 217 197 196
3 216 217 196
3 324 303 323
3 324 304 303
3 292 272 271
3 291 292 271
3 312 292 311
3 292 291 311
3 352 331 351
3 331 352 332
3 371 352 351
3 372 352 371
3 332 352 333
3 352 353 333
3 352 372 373
3 353 352 373
3 381 362 361
3 362 381 382
3 123 102 122
3 102 123 103
3 83 102 103
3 82 102 83
3 81 60 80
3 60 81 61
3 61 81 62
3 81 82 62
3 195 196 176
3 175 195 176
3 193 174 173
3 174 193 194
3 174 195 175
3 195 174 194
3 174 175 155
3 154 174 155
3 153 133 132
3 152 153 132
3 153 172 173
3 172 153 152
3 174 153 173
3 153 174 154
3 134 154 155
3 135 134 155
3 134 115 114
3 134 135 115
3 134 153 154
3 153 134 133
3 113 134 114
3 133 134 113
3 356 335 355
3 335 356 336
3 58 39 38
3 39 58 59
3 136 157 137
3 157 136 156
3 136 155 156
3 136 135 155
3 136 116 115
3 135 136 115
3 117 118 98
3 97 117 98
3 118 117 138
3 138 117 137
3 116 117 96
3 117 97 96
3 136 117 116
3 117 136 137
3 66 45 65
3 45 66 46
3 45 64 65
3 45 44 64
3 3 24 4
3 24 3 23
3 24 23 43
3 44 24 43
3 107 87 106
3 87 86 106
3 87 66 86
3 87 67 66
3 68 87 88
3 67 87 68
3 269 270 249
3 249 270 250
3 270 251 250
3 251 270 271
3 289 270 269
3 290 270 289
3 270 290 291
3 270 291 271
3 171 190 191
3 190 171 170
3 190 169 189
3 169 190 170
3 211 190 210
3 190 211 191
3 209 190 189
3 210 190 209
3 212 233 213
3 232 233 212
3 233 214 213
3 214 233 234
3 233 232 252
3 253 233 252
3 234 233 254
3 233 253 254
3 307 288 287
3 288 307 308
3 328 307 327
3 308 307 328
3 307 287 286
3 306 307 286
3 307 326 327
3 307 306 326
3 298 317 318
3 297 317 298
3 317 338 318
3 338 317 337
3 317 316 336
3 337 317 336
3 274 253 273
3 253 274 254
3 296 315 316
3 315 296 295
3 296 317 297
3 317 296 316
3 296 297 277
3 276 296 277
3 108 87 107
3 87 108 88
3 169 149 168
3 149 148 168
3 150 149 170
3 149 169 170
3 293 313 314
3 294 293 314
3 293 274 273
3 274 293 294
3 313 293 312
3 293 292 312
3 272 293 273
3 292 293 272
3 343 324 323
3 343 344 324
3 101 121 122
3 102 101 122
3 101 100 120
3 121 101 120
3 101 102 82
3 81 101 82
3 100 101 80
3 101 81 80
3 236 215 235
3 215 236 216
3 215 216 196
3 195 215 196
3 215 234 235
3 215 214 234
3 214 215 194
3 215 195 194
3 395 376 375
3 376 395 396
3 375 376 355
3 376 356 355
3 397 376 396
3 377 376 397
3 357 378 358
3 357 377 378
3 338 357 358
3 357 338 337
3 357 376 377
3 376 357 356
3 356 357 336
3 357 337 336
3 96 77 76
3 97 77 96
3 26 25 46
3 25 45 46
3 5 25 6
3 25 26 6
3 45 25 44
3 25 24 44
3 25 5 4
3 24 25 4
3 254 275 255
3 274 275 254
3 275 294 295
3 275 274 294
3 275 276 256
3 255 275 256
3 296 275 295
3 275 296 276
3 148 128 147
3 128 127 147
3 127 128 107
3 128 108 107
3 149 128 148
3 128 149 129
3 111 92 91
3 92 111 112
3 112 111 132
3 111 131 132
3 90 111 91
3 111 90 110
3 70 90 71
3 90 91 71
3 90 70 69
3 89 90 69
3 130 149 150
3 149 130 129
3 131 130 151
3 130 150 151
3 130 111 110
3 111 130 131
3 109 130 110
3 130 109 129
3 109 89 88
3 108 109 88
3 109 128 129
3 128 109 108
3 109 90 89
3 90 109 110
3 345 365 366
3 345 366 346
3 365 345 364
3 345 344 364
3 384 363 383
3 364 363 384
3 343 363 344
3 344 363 364
3 363 382 383
3 363 362 382
3 361 342 341
3 362 342 361
3 342 321 341
3 342 322 321
3 363 342 362
3 342 363 343
3 322 342 323
3 342 343 323
3 78 99 79
3 78 98 99
3 78 97 98
3 78 77 97
3 59 78 79
3 58 78 59
3 57 38 37
3 57 58 38
3 36 57 37
3 56 57 36
3 57 78 58
3 78 57 77
3 57 56 76
3 77 57 76
3 326 325 346
3 325 345 346
3 344 325 324
3 345 325 344
3 325 306 305
3 306 325 326
3 304 325 305
3 324 325 304
